{"glyphs":{":":{"x_min":0,"x_max":344,"ha":344,"o":"m 357 421 q 357 419 357 412 q 356 404 354 394 q 351 383 345 372 q 340 360 330 351 q 319 341 304 334 q 288 328 266 328 q 248 328 233 333 q 218 337 208 347 q 197 356 191 371 q 186 386 186 407 q 186 425 191 442 q 196 458 207 472 q 217 485 234 493 q 251 500 275 500 q 315 500 336 480 q 357 459 357 421 z m 328 93 q 328 91 328 83 q 327 76 324 65 q 322 55 316 44 q 311 32 300 22 q 290 13 274 6 q 259 0 236 0 q 218 0 204 5 q 189 9 178 19 q 168 28 162 43 q 156 58 156 79 q 156 97 161 114 q 167 130 177 144 q 188 157 205 165 q 222 172 246 172 q 286 172 307 152 q 328 131 328 93 z"},"$":{"x_min":0,"x_max":842,"ha":842,"o":"m 520 914 q 521 923 526 933 q 531 943 540 951 q 549 958 562 964 q 574 969 590 969 q 599 969 605 965 q 611 960 615 955 q 619 949 621 942 q 623 936 623 931 q 623 927 623 921 q 622 916 621 910 q 621 904 620 899 q 619 893 619 889 l 611 844 q 651 836 687 821 q 722 806 749 784 q 776 762 792 733 q 809 705 809 671 q 809 652 804 639 q 799 625 792 617 q 784 608 774 604 q 764 599 753 599 q 742 599 731 604 q 720 608 711 618 q 702 627 697 640 q 691 654 691 671 q 691 695 666 715 q 641 735 595 744 l 548 472 q 583 452 615 429 q 648 407 674 380 q 699 353 715 320 q 730 288 730 248 q 730 193 711 150 q 692 107 657 76 q 622 45 573 26 q 524 7 464 2 l 450 -77 q 446 -88 441 -95 q 436 -101 429 -104 q 422 -108 415 -109 q 408 -110 401 -110 q 396 -110 392 -110 q 388 -109 384 -109 q 376 -109 369 -105 q 363 -101 358 -94 q 354 -86 351 -77 q 348 -67 348 -56 q 348 -50 349 -44 q 349 -39 350 -32 q 351 -28 352 -19 q 354 -10 356 2 q 304 6 258 21 q 212 35 178 59 q 145 83 125 119 q 105 155 105 204 q 105 221 109 241 q 113 261 121 280 q 129 300 142 318 q 156 336 175 350 q 195 363 221 372 q 247 380 281 380 q 296 380 306 376 q 317 372 324 365 q 331 358 334 349 q 338 341 338 332 q 338 316 327 304 q 317 292 296 292 q 285 292 272 289 q 259 286 248 276 q 237 267 229 250 q 222 233 222 205 q 222 159 263 133 q 303 108 374 103 l 431 417 q 393 437 355 458 q 318 479 288 505 q 259 531 240 562 q 222 593 222 632 q 222 669 240 707 q 259 745 295 776 q 331 807 385 828 q 438 848 509 851 z m 613 248 q 613 265 607 281 q 601 296 589 310 q 578 324 563 337 q 547 350 529 362 l 484 109 q 514 117 537 129 q 561 142 578 160 q 595 177 604 199 q 613 222 613 248 z m 354 646 q 354 628 362 613 q 369 597 382 582 q 395 567 413 554 q 430 541 451 528 q 462 587 472 643 q 482 699 491 748 q 454 744 428 734 q 403 724 386 710 q 370 696 362 680 q 354 663 354 646 z"},"?":{"x_min":0,"x_max":631,"ha":631,"o":"m 347 285 q 340 262 326 250 q 313 237 297 237 q 280 237 267 245 q 254 252 254 269 q 254 312 268 345 q 283 377 304 403 q 326 429 351 450 q 376 472 397 495 q 419 518 433 545 q 448 572 448 608 q 448 628 440 643 q 433 657 421 666 q 409 675 394 679 q 379 683 365 683 q 354 683 341 676 q 329 669 318 660 q 308 651 300 641 q 292 631 290 625 q 282 615 271 610 q 261 605 250 605 q 240 605 231 610 q 222 615 215 624 q 208 632 204 644 q 200 655 200 669 q 200 680 207 691 q 222 713 242 730 q 262 748 285 759 q 308 771 333 776 q 358 782 382 782 q 412 782 445 773 q 478 763 505 743 q 532 723 549 691 q 567 660 567 617 q 567 565 555 529 q 542 492 523 465 q 503 438 479 417 q 454 396 430 376 q 405 356 383 335 q 361 313 347 285 z m 364 93 q 364 91 364 83 q 363 76 361 65 q 358 55 352 44 q 347 32 336 22 q 326 13 311 6 q 295 0 272 0 q 254 0 240 5 q 225 9 215 19 q 204 28 198 43 q 192 58 192 79 q 192 97 198 114 q 203 130 213 144 q 224 157 241 165 q 258 172 282 172 q 322 172 343 152 q 364 131 364 93 z"},"<":{"x_min":0,"x_max":578,"ha":578,"o":"m 241 134 q 177 156 136 174 q 95 193 71 212 q 47 232 38 254 q 28 276 28 306 q 28 334 41 351 q 53 368 74 379 q 94 391 120 400 q 146 409 174 421 q 175 422 193 430 q 210 438 238 449 q 266 461 301 476 q 335 490 368 504 q 402 518 431 529 q 460 540 479 546 q 489 549 500 549 q 513 549 522 544 q 531 538 537 529 q 543 521 547 510 q 550 500 552 491 q 553 482 553 476 q 554 470 554 470 q 554 451 543 441 q 533 431 516 426 l 124 299 l 444 182 q 452 179 463 172 q 474 165 483 154 q 493 144 500 130 q 507 116 507 100 q 507 83 494 72 q 480 62 457 62 q 436 62 410 69 q 385 77 357 88 q 329 100 299 112 q 270 125 241 134 z"},"'":{"x_min":0,"x_max":297,"ha":297,"o":"m 78 626 q 78 635 79 649 q 80 663 81 680 q 82 697 83 716 q 84 734 86 752 q 89 795 94 844 q 94 858 101 870 q 108 881 120 889 q 132 897 146 902 q 161 906 176 906 q 188 906 199 903 q 210 900 219 894 q 228 887 233 877 q 238 867 238 853 q 238 847 237 841 q 236 835 234 828 q 228 805 219 777 q 211 749 203 721 q 194 693 186 668 q 178 643 172 625 q 164 602 148 590 q 133 579 117 579 q 102 579 90 591 q 78 603 78 626 z"},"=":{"x_min":0,"x_max":833,"ha":833,"o":"m 236 187 q 224 187 212 189 q 201 192 191 199 q 182 205 176 215 q 170 225 170 239 q 170 258 180 269 q 189 280 206 286 q 222 292 244 294 q 265 296 289 296 q 310 296 343 296 q 375 296 416 296 q 456 296 501 296 q 545 296 590 296 q 634 296 676 296 q 718 296 751 296 q 764 296 771 294 q 779 292 784 287 q 788 283 790 277 q 792 272 792 266 q 792 249 786 235 q 780 220 766 209 q 752 199 729 193 q 706 187 671 187 z"},"a":{"x_min":0,"x_max":474,"ha":474,"o":"m 573 120 q 562 104 543 83 q 524 62 501 43 q 478 24 451 11 q 424 -2 397 -2 q 365 -2 343 18 q 322 39 306 79 q 294 65 277 51 q 260 37 240 25 q 220 14 198 6 q 176 -1 154 -1 q 130 -1 108 9 q 86 18 69 36 q 52 54 42 79 q 31 105 31 137 q 31 174 42 212 q 52 251 73 296 q 95 341 119 374 q 144 406 173 431 q 203 455 235 469 q 268 484 301 484 q 312 484 319 479 q 325 475 329 469 q 333 464 337 458 q 341 453 347 451 q 353 448 359 448 q 365 447 372 447 q 377 447 383 447 q 388 447 394 447 q 401 447 407 446 q 414 444 418 439 q 423 435 426 426 q 429 417 429 402 q 429 378 424 350 q 419 321 413 291 q 407 261 399 223 q 391 185 391 158 q 391 135 395 122 q 399 109 413 109 q 423 109 434 115 q 445 120 457 128 q 468 136 480 147 q 491 157 501 168 q 525 195 550 228 z m 156 158 q 156 146 158 135 q 160 123 164 114 q 168 105 176 99 q 183 94 194 94 q 212 94 227 109 q 242 125 252 147 q 263 169 270 192 q 276 216 278 231 l 315 391 q 295 391 276 381 q 257 371 240 354 q 223 337 209 315 q 195 293 181 261 q 167 229 162 204 q 156 180 156 158 z"},"L":{"x_min":0,"x_max":474,"ha":474,"o":"m -76 160 q -70 164 -55 174 q -40 184 -19 198 q 1 211 25 228 q 49 244 72 261 l 76 294 q 86 396 110 482 q 134 568 167 637 q 199 706 238 758 q 276 810 316 844 q 355 879 394 897 q 433 914 467 914 q 491 914 512 905 q 532 896 547 877 q 562 858 570 831 q 578 803 578 766 q 578 720 564 670 q 551 621 526 570 q 500 519 465 469 q 430 418 387 371 q 345 324 295 282 q 246 241 192 208 q 192 178 190 137 q 190 119 190 110 q 189 101 189 98 q 189 94 189 92 q 189 88 191 84 q 193 81 198 78 q 203 76 212 75 q 221 74 235 74 q 257 74 294 84 l 458 131 q 461 132 466 133 q 470 133 473 133 q 485 133 494 129 q 503 124 509 116 q 515 108 518 98 q 521 88 521 77 q 521 67 518 58 q 515 49 509 41 q 503 33 494 27 q 485 21 474 19 q 426 0 376 -15 q 354 -21 331 -28 q 307 -34 282 -38 q 258 -43 233 -46 q 208 -49 184 -49 q 148 -49 125 -36 q 102 -24 88 -3 q 75 19 69 59 q 64 99 64 130 q 22 99 -7 81 q -37 63 -45 63 q -53 63 -61 69 q -68 74 -75 83 q -81 93 -85 104 q -88 116 -88 127 q -88 136 -86 145 q -84 154 -76 160 z m 201 331 q 226 357 253 387 q 280 418 307 451 q 333 485 358 520 q 383 555 403 589 q 422 624 436 657 q 449 689 453 719 q 455 729 455 738 q 456 747 456 754 q 456 782 448 795 q 440 808 427 808 q 412 808 391 791 q 370 775 347 745 q 324 714 300 671 q 277 628 257 576 q 237 523 222 461 q 207 399 201 331 z"},"3":{"x_min":0,"x_max":421,"ha":421,"o":"m 120 122 q 118 105 120 93 q 123 82 128 74 q 133 67 141 63 q 148 60 157 60 q 170 60 189 66 q 208 72 219 83 q 230 94 239 109 q 247 124 249 141 q 251 168 247 199 q 242 229 229 241 q 216 253 196 260 q 175 266 147 269 q 131 270 125 276 q 119 281 120 290 q 120 296 123 304 q 125 312 129 320 q 134 327 141 331 q 147 336 156 336 q 176 336 192 343 q 208 351 221 376 q 234 402 241 415 q 248 429 249 441 q 250 458 241 470 q 232 481 209 481 q 192 481 179 473 q 166 465 165 454 q 165 448 168 441 q 172 435 181 430 q 186 427 186 423 q 186 419 178 416 q 170 412 161 409 q 151 407 143 405 q 134 403 131 403 q 125 403 120 406 q 115 409 111 415 q 106 421 104 432 q 103 443 104 459 q 107 490 120 511 q 134 532 154 544 q 174 556 198 562 q 223 568 248 568 q 275 568 301 561 q 327 555 347 542 q 366 530 377 511 q 389 493 386 464 q 385 450 380 434 q 375 417 365 401 q 354 385 335 354 q 315 322 288 312 q 317 305 337 289 q 356 274 368 253 q 379 232 383 197 q 387 161 384 135 q 382 109 366 84 q 351 58 325 38 q 299 18 266 5 q 232 -8 193 -8 q 138 -8 107 2 q 75 12 56 30 q 37 48 30 73 q 23 98 26 128 q 28 147 34 159 q 41 172 51 179 q 61 187 74 190 q 86 193 100 193 q 111 193 125 191 q 139 188 150 184 q 162 179 170 174 q 178 168 177 164 q 177 160 168 157 q 160 155 149 151 q 138 146 129 140 q 121 133 120 122 z"},";":{"x_min":0,"x_max":375,"ha":375,"o":"m 143 -35 q 145 -29 147 -19 q 149 -9 153 3 q 156 15 159 28 q 163 41 167 53 q 175 83 184 116 q 187 126 194 134 q 200 142 209 147 q 218 152 229 154 q 240 157 251 157 q 265 157 278 153 q 292 149 303 142 q 314 135 321 124 q 328 114 328 100 q 328 90 324 81 q 321 72 315 61 q 306 46 295 30 q 284 13 273 -4 q 262 -21 251 -36 q 241 -52 233 -63 q 221 -79 207 -86 q 193 -93 180 -93 q 164 -93 152 -83 q 140 -72 140 -53 q 140 -45 143 -35 z m 357 421 q 357 419 357 412 q 356 404 354 394 q 351 383 345 372 q 340 360 330 351 q 319 341 304 334 q 288 328 266 328 q 248 328 233 333 q 218 337 208 347 q 197 356 191 371 q 186 386 186 407 q 186 425 191 442 q 196 458 207 472 q 217 485 234 493 q 251 500 275 500 q 315 500 336 480 q 357 459 357 421 z"},"J":{"x_min":0,"x_max":947,"ha":947,"o":"m 281 -125 q 281 -59 306 10 q 332 78 378 139 q 424 201 490 249 q 555 297 636 322 q 594 355 558 393 q 522 430 495 469 q 468 507 453 547 q 438 586 438 625 q 438 675 448 720 q 459 765 479 803 q 498 841 524 872 q 551 903 581 925 q 611 947 644 958 q 677 970 710 970 q 754 970 795 948 q 836 925 868 876 q 899 828 918 750 q 938 672 938 562 q 938 483 932 411 q 926 340 916 274 q 945 256 976 238 q 1006 221 1038 203 q 1044 199 1053 194 q 1063 188 1072 182 q 1081 176 1087 170 q 1094 164 1094 159 q 1094 154 1090 150 q 1085 145 1080 141 q 1074 137 1069 134 q 1063 131 1060 129 q 1052 125 1039 125 q 1011 125 974 136 q 938 146 894 165 q 873 74 843 -1 q 812 -76 777 -135 q 741 -195 701 -239 q 662 -283 621 -312 q 580 -342 540 -356 q 500 -371 462 -371 q 424 -371 391 -355 q 358 -340 333 -309 q 309 -278 295 -232 q 281 -186 281 -125 z m 406 -156 q 406 -206 426 -232 q 445 -257 477 -257 q 509 -257 550 -229 q 590 -201 631 -141 q 672 -82 710 9 q 747 101 773 227 l 755 238 q 705 228 660 204 q 615 180 576 146 q 537 113 506 73 q 475 34 452 -7 q 430 -47 418 -86 q 406 -125 406 -156 z m 562 656 q 562 617 580 579 q 597 540 627 502 q 658 464 701 427 q 743 390 794 354 q 803 422 808 497 q 812 572 812 656 q 812 714 805 754 q 798 793 785 818 q 773 843 756 854 q 739 865 721 865 q 703 865 684 856 q 666 848 648 832 q 630 817 615 796 q 599 776 588 753 q 576 729 569 705 q 562 680 562 656 z"},"V":{"x_min":0,"x_max":526,"ha":526,"o":"m 44 234 q 44 235 43 251 q 42 268 40 294 q 38 321 35 356 q 32 391 30 429 q 27 468 24 508 q 21 547 20 584 q 18 620 16 651 q 15 681 15 701 q 15 731 23 747 q 30 763 41 771 q 52 778 63 780 q 75 781 84 781 q 102 781 114 776 q 125 771 132 761 q 138 752 141 738 q 143 725 143 708 l 165 127 l 482 737 q 486 749 494 760 q 502 771 514 779 q 526 787 540 791 q 554 796 569 796 q 587 796 597 781 q 607 765 607 740 q 607 723 598 693 q 588 664 573 627 q 558 591 537 549 q 517 507 494 463 q 472 420 449 377 q 427 334 406 297 q 400 286 397 273 q 395 261 395 249 q 395 230 402 213 q 409 195 425 182 q 440 168 464 160 q 487 152 520 152 q 528 152 537 155 q 547 159 557 164 q 567 170 578 177 q 589 185 599 192 q 623 209 647 232 l 636 131 q 596 99 555 79 q 515 60 480 60 q 447 60 421 69 q 396 78 377 95 q 359 111 350 135 q 341 158 341 187 q 341 202 344 219 q 315 151 290 106 q 265 61 241 34 q 218 7 196 -5 q 174 -16 152 -16 q 123 -16 104 -6 q 86 3 75 21 q 64 38 59 62 q 54 86 52 114 q 49 142 48 172 q 47 203 44 234 z"},"\"":{"x_min":0,"x_max":578,"ha":578,"o":"m 104 626 q 104 635 104 649 q 105 663 106 680 q 107 697 108 716 q 110 734 111 752 q 115 795 119 844 q 119 858 126 870 q 134 881 146 889 q 157 897 172 902 q 187 906 201 906 q 213 906 225 903 q 236 900 245 894 q 253 887 259 877 q 264 867 264 853 q 264 847 263 841 q 262 835 260 828 q 253 805 245 777 q 237 749 228 721 q 220 693 212 668 q 204 643 197 625 q 189 602 174 590 q 158 579 143 579 q 127 579 115 591 q 104 603 104 626 z m 291 626 q 291 635 292 649 q 292 663 293 680 q 294 697 296 716 q 297 734 299 752 q 302 795 307 844 q 307 858 314 870 q 321 881 333 889 q 345 897 359 902 q 374 906 389 906 q 401 906 412 903 q 423 900 432 894 q 441 887 446 877 q 451 867 451 853 q 451 847 450 841 q 449 835 447 828 q 440 805 432 777 q 424 749 416 721 q 407 693 399 668 q 391 643 385 625 q 376 602 361 590 q 346 579 330 579 q 314 579 303 591 q 291 603 291 626 z"},"7":{"x_min":0,"x_max":297,"ha":297,"o":"m 132 -27 q 128 -27 119 -26 q 109 -24 98 -18 q 88 -13 80 -3 q 72 7 72 24 q 72 26 72 28 q 72 29 72 32 q 80 77 98 122 q 116 168 141 214 q 166 261 198 309 q 229 356 266 406 q 242 412 228 417 q 213 423 202 427 q 192 431 183 433 q 174 436 162 436 q 146 436 136 435 q 126 435 119 432 q 112 429 106 423 q 101 417 94 406 q 79 383 68 372 q 58 361 50 361 q 42 361 39 368 q 36 375 36 387 q 36 392 36 397 q 37 403 38 409 q 45 451 59 478 q 72 504 89 518 q 106 533 124 538 q 143 543 158 543 q 176 543 194 537 q 211 532 230 525 q 248 518 267 512 q 286 507 307 506 q 316 506 324 506 q 333 506 339 506 q 359 506 370 507 q 382 507 388 508 q 394 509 397 510 q 399 511 401 511 q 418 511 426 499 q 433 487 433 466 q 433 453 430 438 q 430 435 422 429 q 415 423 406 416 q 396 409 386 403 q 376 396 371 393 q 339 349 317 305 q 295 262 278 216 q 261 170 247 120 q 232 70 215 13 q 211 -1 201 -9 q 191 -17 179 -21 q 167 -25 155 -26 q 142 -27 132 -27 z"},"S":{"x_min":0,"x_max":842,"ha":842,"o":"m 358 641 q 358 608 377 583 q 396 558 427 536 q 458 514 497 495 q 536 475 577 454 q 619 434 658 410 q 697 386 728 356 q 759 327 778 289 q 797 251 797 203 q 797 159 783 122 q 769 85 744 56 q 719 27 686 4 q 652 -18 613 -33 q 574 -47 531 -55 q 488 -62 444 -62 q 383 -62 326 -48 q 268 -33 223 -3 q 178 27 151 73 q 124 118 124 178 q 124 209 134 233 q 144 257 159 273 q 174 289 191 297 q 209 305 224 305 q 240 305 250 296 q 261 288 261 270 q 261 261 259 252 q 257 243 255 232 q 252 221 250 208 q 249 194 249 179 q 249 145 264 120 q 280 95 306 79 q 332 62 365 55 q 399 47 435 47 q 478 47 520 57 q 562 67 596 87 q 630 107 651 136 q 672 166 672 203 q 672 238 653 265 q 634 292 603 316 q 572 339 533 359 q 493 380 452 401 q 411 422 372 445 q 332 468 301 496 q 270 524 251 558 q 232 593 232 637 q 232 678 252 718 q 272 757 312 789 q 352 820 411 840 q 471 859 551 859 q 602 859 650 844 q 699 829 737 801 q 775 773 798 735 q 821 696 821 649 q 821 622 812 592 q 802 563 781 531 q 761 500 737 486 q 712 471 693 471 q 678 471 669 479 q 660 488 660 505 q 660 518 666 535 q 671 552 686 575 q 699 596 705 615 q 711 634 711 650 q 711 675 698 694 q 685 712 661 725 q 637 738 604 744 q 571 750 531 750 q 487 750 455 740 q 422 730 401 715 q 379 699 368 679 q 358 660 358 641 z"},"}":{"x_min":0,"x_max":609,"ha":609,"o":"m 492 637 q 488 616 484 592 q 479 569 476 545 q 472 522 469 500 q 466 478 466 460 q 466 443 470 431 q 474 418 483 409 q 492 400 508 396 q 523 391 546 391 q 565 390 574 374 q 583 358 583 336 q 583 321 579 306 q 575 291 567 278 q 560 266 549 258 q 538 250 524 250 q 501 250 484 242 q 468 235 456 223 q 445 211 438 197 q 432 182 430 169 q 424 138 420 110 q 416 83 411 52 q 403 4 385 -36 q 368 -76 343 -105 q 317 -134 286 -151 q 255 -167 220 -167 q 210 -167 193 -165 q 175 -163 154 -158 q 133 -154 111 -147 q 89 -140 72 -130 q 54 -120 42 -108 q 31 -95 31 -80 q 31 -61 38 -47 q 45 -33 56 -24 q 66 -15 77 -10 q 88 -6 97 -6 q 112 -6 125 -11 q 137 -17 150 -24 q 163 -31 177 -36 q 191 -42 208 -42 q 224 -42 237 -35 q 250 -29 260 -11 q 271 6 280 37 q 288 67 296 114 q 301 147 308 181 q 315 215 327 245 q 339 274 359 295 q 379 316 410 323 q 391 330 378 342 q 365 354 357 371 q 349 387 346 406 q 343 426 343 447 q 343 473 346 503 q 350 533 354 562 q 358 591 362 617 q 365 642 365 659 q 365 679 362 692 q 359 706 353 713 q 347 721 338 724 q 330 727 318 727 q 301 727 281 724 q 260 722 241 719 q 222 716 204 713 q 187 711 175 711 q 165 711 157 715 q 150 719 145 725 q 139 732 136 740 q 134 749 134 758 q 134 771 140 784 q 146 796 159 805 q 186 821 215 830 q 245 839 273 844 q 302 849 327 850 q 352 852 370 852 q 399 852 423 840 q 446 829 463 808 q 479 787 488 757 q 496 728 496 691 q 496 665 492 637 z"},"Z":{"x_min":0,"x_max":526,"ha":526,"o":"m 310 641 q 284 644 264 650 q 244 655 229 661 q 213 667 200 671 q 188 675 177 675 q 168 675 160 671 q 152 667 143 657 q 135 648 125 632 q 116 616 105 592 q 92 562 78 552 q 63 541 53 541 q 44 541 40 549 q 36 557 36 570 q 36 576 37 582 q 38 588 39 595 q 47 658 63 698 q 80 737 100 760 q 120 782 142 790 q 163 797 182 797 q 204 797 225 791 q 246 785 267 777 q 289 769 312 762 q 334 756 359 755 q 377 755 393 755 q 409 755 423 755 q 467 755 493 756 q 520 757 533 758 q 547 759 552 760 q 557 761 559 761 q 580 761 589 747 q 598 733 598 710 q 598 703 597 695 q 596 687 594 678 q 593 675 587 669 q 581 662 567 654 q 510 599 463 544 q 415 488 376 437 q 337 385 307 339 q 277 293 255 257 q 233 221 219 198 q 205 174 199 167 l 197 156 q 197 156 205 152 q 212 148 225 142 q 237 137 253 130 q 268 123 284 117 q 300 112 315 108 q 331 104 342 104 q 382 104 413 112 q 444 121 470 133 q 496 145 516 158 q 537 171 555 182 q 566 189 577 189 q 587 189 597 184 q 607 178 615 168 q 623 159 628 148 q 632 136 632 125 q 632 109 624 99 q 606 84 576 64 q 547 45 510 27 q 474 10 432 -2 q 391 -15 348 -15 q 341 -15 325 -11 q 309 -7 282 3 q 255 12 218 28 q 180 43 131 66 q 106 44 81 34 q 57 25 36 25 q 10 25 -7 39 q -23 52 -23 76 q -23 95 -10 119 q 2 144 31 172 l 390 641 q 378 641 366 640 q 354 640 342 640 q 326 640 310 641 z"},"x":{"x_min":0,"x_max":526,"ha":526,"o":"m 97 228 q 97 213 96 200 q 96 187 96 175 q 96 163 97 154 q 98 144 101 137 q 104 130 110 126 q 115 123 125 123 q 130 123 137 129 q 144 135 152 147 q 161 159 171 175 q 182 191 196 210 q 191 238 166 289 q 127 368 108 425 q 107 428 107 430 q 107 439 114 449 q 122 458 133 467 q 145 475 158 481 q 171 486 184 486 q 193 486 200 483 q 208 479 211 473 q 240 389 228 432 q 222 451 284 319 q 288 331 369 400 q 399 427 436 451 q 448 459 458 463 q 469 466 478 466 q 489 466 498 462 q 506 457 512 449 q 518 441 521 431 q 524 421 524 410 q 524 395 518 380 q 511 366 498 357 q 456 331 426 304 q 378 261 332 213 q 343 191 354 172 q 365 153 375 139 q 385 125 395 117 q 404 109 413 109 q 423 109 439 114 q 454 120 471 129 q 489 138 507 149 q 525 161 541 173 q 558 186 571 198 q 584 211 593 222 q 593 206 593 192 q 593 179 593 167 q 593 155 594 143 q 594 130 594 114 q 578 98 552 78 q 527 59 496 41 q 465 24 430 12 q 395 0 359 0 q 339 0 309 27 q 278 54 243 115 q 222 90 203 70 q 184 49 167 33 q 151 18 136 9 q 122 0 109 0 q 85 0 69 13 q 54 25 44 45 q 35 65 31 88 q 26 111 25 133 z"},")":{"x_min":0,"x_max":631,"ha":631,"o":"m 374 844 q 423 844 458 816 q 494 789 517 741 q 540 693 551 630 q 562 566 562 495 q 562 423 551 347 q 541 271 521 198 q 500 126 472 62 q 443 -3 406 -51 q 370 -100 326 -128 q 283 -156 233 -156 q 202 -156 168 -148 q 135 -140 106 -127 q 78 -114 57 -97 q 36 -81 30 -62 q 30 -62 30 -61 q 30 -60 30 -59 q 30 -50 37 -40 q 44 -29 54 -19 q 65 -10 77 -3 q 89 3 98 3 q 105 3 108 0 q 120 -5 132 -13 q 145 -21 159 -29 q 174 -36 192 -41 q 210 -46 233 -46 q 263 -46 289 -21 q 316 5 339 49 q 361 92 380 149 q 398 207 411 269 q 424 332 431 396 q 438 461 438 519 q 438 564 433 604 q 429 643 419 672 q 409 701 393 718 q 377 734 356 734 q 343 734 326 732 q 310 730 289 721 q 268 711 242 693 q 216 674 187 641 q 180 634 173 631 q 166 628 160 628 q 150 628 142 634 q 133 640 127 649 q 121 658 117 669 q 114 680 114 691 q 114 709 124 719 q 188 786 252 815 q 315 844 374 844 z"},"&":{"x_min":0,"x_max":737,"ha":737,"o":"m 251 418 q 242 436 232 458 q 222 481 214 507 q 205 532 199 558 q 194 583 194 606 q 194 646 211 682 q 228 718 257 746 q 286 774 323 790 q 361 807 403 807 q 439 807 469 796 q 499 785 521 765 q 542 746 554 719 q 566 693 566 662 q 566 634 557 604 q 547 574 526 543 q 505 512 472 481 q 439 451 392 422 q 397 410 411 388 q 425 366 443 338 q 460 311 479 281 q 498 251 514 223 q 524 230 530 238 q 536 246 539 254 q 542 262 543 270 q 543 278 543 286 q 543 305 539 318 q 535 331 527 344 q 519 356 507 371 q 496 385 483 406 q 483 407 485 409 q 488 412 491 415 q 494 417 497 420 q 500 422 501 422 q 508 422 522 416 q 536 410 552 399 q 568 388 585 372 q 602 357 616 338 q 629 319 638 297 q 647 274 647 250 q 647 221 631 189 q 614 157 575 125 q 577 125 585 118 q 594 112 605 103 q 617 94 628 85 q 639 77 644 72 q 652 64 652 52 q 652 41 645 28 q 639 15 628 4 q 618 -7 606 -15 q 593 -22 582 -22 q 570 -22 562 -15 q 555 -9 543 3 q 531 16 520 29 q 508 42 499 52 q 490 62 490 62 q 467 45 438 31 q 412 20 376 10 q 340 0 294 0 q 234 0 189 13 q 144 26 114 49 q 83 72 68 103 q 53 133 53 168 q 53 199 65 232 q 78 265 103 297 q 127 330 165 361 q 202 392 251 418 z m 298 99 q 330 99 360 110 q 390 121 417 138 q 396 163 379 183 q 363 204 348 227 q 333 250 316 277 q 299 305 278 344 q 254 326 236 306 q 217 287 205 266 q 192 246 185 225 q 179 205 179 186 q 179 167 186 152 q 193 136 208 124 q 222 112 245 105 q 267 99 298 99 z m 409 703 q 399 703 386 697 q 374 690 363 678 q 352 667 344 651 q 337 635 337 616 q 337 600 342 578 q 346 555 352 534 q 358 514 363 499 q 368 485 369 485 q 393 507 412 527 q 432 547 446 567 q 459 587 467 608 q 475 628 475 650 q 475 663 471 672 q 468 682 461 689 q 454 696 441 699 q 428 703 409 703 z"},"_":{"x_min":0,"x_max":609,"ha":609,"o":"m 62 0 q 51 0 39 3 q 27 6 18 12 q 9 19 3 29 q -3 39 -3 53 q -3 71 7 83 q 16 94 32 100 q 49 105 70 107 q 92 109 115 109 q 136 109 169 109 q 202 109 242 109 q 283 109 327 110 q 372 110 417 110 q 461 110 503 110 q 544 110 578 110 q 590 110 598 107 q 606 105 610 101 q 615 96 616 91 q 618 85 618 80 q 618 62 613 48 q 607 34 593 23 q 579 12 556 6 q 533 0 498 0 z"},"v":{"x_min":0,"x_max":421,"ha":421,"o":"m 62 158 q 61 195 60 222 q 58 249 57 271 q 56 293 55 312 q 55 330 55 350 q 55 415 59 443 q 64 471 80 473 l 138 482 q 138 482 143 483 q 145 483 147 483 q 164 483 173 474 q 182 464 183 451 l 164 127 l 170 128 l 304 454 q 305 460 310 467 q 315 473 323 478 q 331 482 340 485 q 350 488 360 488 q 389 488 406 477 q 423 465 423 447 q 423 434 419 421 q 415 406 409 395 q 396 370 394 363 q 372 310 369 302 q 366 293 363 284 q 360 275 359 265 q 357 254 357 243 q 357 231 360 220 q 363 209 370 200 q 377 191 390 186 q 403 180 423 180 q 438 180 457 188 q 476 195 493 205 q 513 216 534 230 l 534 116 q 502 95 468 83 q 433 71 402 71 q 375 71 355 79 q 334 87 320 101 q 305 114 297 131 q 289 148 289 167 q 274 138 256 107 q 238 76 219 51 q 200 26 180 10 q 161 -5 144 -5 q 116 -5 100 9 q 84 23 77 45 q 69 67 67 93 q 65 119 63 143 z"},"O":{"x_min":0,"x_max":789,"ha":789,"o":"m 362 -94 q 290 -94 231 -64 q 173 -34 132 19 q 91 73 69 147 q 47 221 47 309 q 47 356 54 405 q 61 455 74 504 q 88 553 109 600 q 130 647 157 689 q 185 731 219 766 q 253 802 295 827 q 336 853 384 867 q 431 882 486 882 q 559 882 617 855 q 675 829 715 782 q 754 734 776 669 q 797 603 797 524 q 797 458 784 387 q 771 316 746 248 q 721 179 684 117 q 647 55 599 8 q 550 -39 491 -66 q 432 -94 362 -94 z m 374 25 q 413 25 447 41 q 480 56 509 82 q 537 108 560 144 q 583 179 601 220 q 619 260 633 304 q 646 347 655 390 q 664 432 668 471 q 672 511 672 543 q 672 590 662 631 q 651 672 631 703 q 610 733 578 751 q 547 769 505 769 q 460 769 418 747 q 376 725 339 688 q 302 651 271 603 q 240 554 218 500 q 196 447 184 391 q 172 335 172 285 q 172 229 186 182 q 200 134 226 100 q 252 65 289 45 q 327 25 374 25 z"},"(":{"x_min":0,"x_max":684,"ha":684,"o":"m 314 -188 q 273 -188 244 -168 q 214 -148 195 -113 q 176 -77 167 -28 q 158 21 158 78 q 158 135 167 198 q 175 261 192 326 q 208 390 231 454 q 254 517 283 574 q 312 632 346 681 q 379 730 417 767 q 455 803 496 823 q 537 844 580 844 q 611 844 645 833 q 678 822 707 805 q 735 787 756 765 q 777 742 783 719 q 783 718 783 717 q 783 716 783 715 q 783 707 776 696 q 769 685 759 676 q 748 666 736 660 q 724 653 715 653 q 708 653 705 656 q 693 665 681 678 q 668 691 654 704 q 639 716 621 725 q 603 734 580 734 q 550 734 521 716 q 493 697 466 664 q 439 632 416 588 q 392 544 371 493 q 351 442 335 388 q 318 333 307 279 q 295 224 289 173 q 283 122 283 78 q 283 44 286 15 q 289 -14 296 -34 q 304 -55 316 -67 q 328 -78 345 -78 q 358 -78 373 -76 q 387 -74 406 -64 q 425 -55 448 -36 q 471 -18 501 16 q 508 22 515 25 q 522 28 528 28 q 538 28 546 22 q 555 17 561 8 q 567 -1 571 -13 q 574 -24 574 -35 q 574 -43 572 -50 q 570 -58 564 -63 q 500 -130 436 -159 q 373 -188 314 -188 z"},"C":{"x_min":0,"x_max":737,"ha":737,"o":"m 862 165 q 838 155 816 138 q 793 121 771 101 q 748 81 723 59 q 698 37 670 15 q 641 -7 607 -27 q 574 -46 533 -61 q 492 -76 443 -85 q 394 -94 334 -94 q 269 -94 216 -67 q 163 -41 125 5 q 87 50 67 110 q 47 169 47 235 q 47 280 57 332 q 66 383 85 437 q 103 490 129 543 q 156 597 189 646 q 223 694 263 736 q 303 778 348 809 q 394 840 444 857 q 494 875 548 875 q 583 875 620 863 q 656 850 685 824 q 713 798 732 759 q 750 719 750 666 q 750 629 739 593 q 727 556 707 522 q 687 488 660 458 q 633 428 602 406 q 570 385 537 372 q 503 359 469 359 q 425 359 403 371 q 381 383 381 406 q 381 410 381 415 q 380 420 380 426 q 380 435 381 445 q 382 454 385 462 q 388 470 394 475 q 399 479 409 479 q 415 479 419 478 q 424 476 429 474 q 435 472 442 470 q 450 469 461 469 q 493 469 525 482 q 557 496 582 521 q 608 546 624 580 q 641 615 641 656 q 641 678 635 698 q 629 718 616 733 q 603 748 582 757 q 561 766 531 766 q 496 766 463 750 q 429 735 398 708 q 368 682 340 646 q 312 610 289 569 q 266 527 247 483 q 228 438 215 394 q 202 349 195 307 q 188 266 188 230 q 188 180 200 143 q 212 105 235 81 q 258 56 292 43 q 325 31 366 31 q 418 31 463 44 q 507 57 548 78 q 588 99 626 125 q 664 152 702 178 q 740 205 779 229 q 818 253 862 270 z"},"W":{"x_min":0,"x_max":1158,"ha":1158,"o":"m 422 753 q 422 736 414 704 q 406 671 394 629 q 381 586 367 537 q 353 487 341 436 q 329 384 321 335 q 312 285 312 243 q 312 208 317 178 q 322 148 332 126 q 341 104 356 91 q 371 78 391 78 q 411 78 429 90 q 448 102 466 122 q 483 143 500 171 q 516 199 531 232 q 545 265 559 302 q 572 338 583 375 q 625 506 656 672 q 662 699 670 717 q 678 735 689 746 q 701 757 716 761 q 730 766 750 766 q 769 766 781 762 q 792 759 800 753 q 807 747 810 739 q 812 730 812 720 q 812 717 809 692 q 805 667 799 627 q 792 588 785 538 q 778 488 772 436 q 766 383 762 332 q 758 281 758 238 q 758 194 761 158 q 765 123 772 98 q 780 73 792 60 q 804 47 822 47 q 854 47 879 71 q 905 96 926 136 q 947 177 964 231 q 981 285 994 343 q 1007 402 1016 461 q 1026 521 1032 574 q 1039 627 1042 669 q 1046 711 1047 735 q 1049 760 1056 775 q 1064 791 1076 799 q 1087 807 1102 810 q 1117 812 1133 812 q 1145 812 1155 810 q 1165 807 1172 801 q 1180 794 1184 783 q 1188 772 1188 755 q 1188 708 1181 653 q 1175 598 1166 542 q 1157 487 1147 435 q 1136 383 1127 341 q 1118 299 1112 270 q 1106 241 1106 233 q 1106 214 1111 201 q 1117 188 1126 179 q 1135 170 1147 166 q 1160 162 1174 162 q 1188 162 1203 169 q 1218 175 1231 187 q 1245 199 1257 215 q 1268 231 1276 251 l 1284 150 q 1248 109 1210 85 q 1171 61 1138 61 q 1122 61 1107 66 q 1093 71 1082 82 q 1071 93 1064 110 q 1057 127 1054 150 q 1029 105 1001 69 q 973 32 942 7 q 910 -19 876 -33 q 841 -47 805 -47 q 758 -47 726 -22 q 693 2 673 44 q 653 86 644 143 q 634 199 634 263 q 634 287 637 307 q 639 328 641 344 q 623 232 596 157 q 570 83 534 37 q 498 -8 452 -28 q 406 -47 350 -47 q 317 -47 288 -26 q 259 -4 237 38 q 214 80 201 143 q 188 206 188 291 q 188 342 193 397 q 199 451 210 506 q 221 561 237 614 q 253 668 274 719 q 286 747 298 763 q 311 779 323 786 q 336 794 349 795 q 362 797 375 797 q 386 797 395 795 q 403 794 409 789 q 416 785 419 776 q 422 768 422 753 z"},"A":{"x_min":0,"x_max":789,"ha":789,"o":"m 914 109 q 904 99 888 85 q 872 71 852 57 q 833 43 810 30 q 787 17 763 7 q 739 -3 715 -10 q 690 -16 668 -16 q 652 -16 636 -10 q 621 -5 608 10 q 595 24 586 49 q 578 75 578 115 q 578 132 581 152 q 583 172 587 195 q 560 140 525 89 q 491 39 452 10 q 413 -19 372 -33 q 330 -48 289 -48 q 243 -48 202 -32 q 162 -16 130 15 q 99 47 81 94 q 62 141 62 220 q 62 267 73 319 q 84 371 105 423 q 126 476 156 528 q 186 580 224 626 q 262 673 307 713 q 353 752 404 781 q 455 811 512 827 q 568 844 629 844 q 646 844 656 841 q 666 838 671 834 q 676 830 678 826 q 679 821 679 818 q 679 815 679 813 q 679 812 679 811 l 679 808 q 692 800 706 799 q 719 797 732 796 q 746 794 757 791 q 769 787 778 775 q 787 764 792 742 q 797 720 797 682 q 797 653 791 616 q 786 580 776 540 q 767 500 756 458 q 744 417 733 379 q 721 340 710 306 q 700 272 692 247 q 691 225 690 207 q 689 188 689 168 q 689 152 690 142 q 690 132 692 126 q 694 121 698 118 q 701 116 707 116 q 716 116 731 121 q 746 126 763 135 q 780 143 798 153 q 816 163 833 173 q 850 183 865 191 q 879 199 889 205 z m 683 741 q 666 746 648 748 q 629 750 612 750 q 573 750 534 735 q 496 720 459 694 q 423 667 390 632 q 357 597 328 556 q 300 515 277 471 q 254 427 237 384 q 221 340 212 299 q 203 257 203 223 q 203 137 231 99 q 258 62 316 62 q 353 62 385 77 q 417 92 445 116 q 473 141 496 180 q 520 220 537 251 q 554 283 565 313 q 577 342 582 364 z"},"f":{"x_min":0,"x_max":368,"ha":368,"o":"m 33 -19 q 33 -16 34 11 q 36 39 39 84 q 42 129 48 189 q 54 248 64 314 q 73 380 86 450 q 99 520 117 585 q 135 651 158 710 q 181 768 209 812 q 238 855 273 881 q 308 906 350 906 q 367 906 385 900 q 403 895 418 881 q 434 868 444 846 q 454 825 454 793 q 454 764 445 727 q 436 689 419 647 q 403 604 381 559 q 358 513 332 467 q 306 421 277 377 q 248 333 217 294 l 216 287 q 226 292 231 293 q 236 294 241 294 q 248 294 251 293 q 255 292 259 291 q 262 289 265 288 q 269 287 273 287 q 322 287 359 298 q 396 310 421 324 q 451 340 473 361 l 462 243 q 430 225 395 215 q 360 206 330 201 q 295 195 261 194 q 279 162 293 127 q 305 97 315 60 q 325 23 325 -14 q 325 -19 324 -33 q 323 -47 320 -67 q 317 -88 312 -113 q 306 -138 298 -163 q 289 -188 277 -212 q 265 -236 248 -254 q 232 -272 211 -284 q 189 -295 163 -295 q 136 -295 116 -283 q 96 -271 82 -250 q 67 -229 58 -201 q 48 -174 43 -143 q 38 -112 35 -80 q 33 -48 33 -19 z m 164 238 q 162 238 159 227 q 157 216 155 198 q 152 181 150 149 q 148 116 147 95 q 146 75 145 57 q 144 39 144 29 q 144 -43 146 -85 q 149 -128 153 -150 q 157 -172 162 -178 q 167 -185 173 -185 q 189 -185 199 -170 q 209 -155 215 -132 q 220 -108 221 -81 q 223 -53 223 -28 q 223 -11 222 14 q 221 39 219 68 q 217 98 211 135 q 205 173 194 192 q 183 211 176 225 q 169 238 164 238 z m 282 749 q 255 684 237 625 q 221 571 213 530 q 205 488 202 457 q 198 425 195 398 q 225 455 256 508 q 288 561 312 608 q 337 654 354 698 q 372 741 372 760 q 372 786 364 798 q 357 810 340 810 q 314 810 306 798 q 299 788 282 749 z"},"Q":{"x_min":0,"x_max":737,"ha":737,"o":"m 797 520 q 797 462 787 399 q 777 335 757 272 q 736 209 705 150 q 674 92 631 45 q 589 -1 535 -33 q 481 -64 415 -72 q 438 -95 456 -117 q 474 -138 491 -155 q 508 -172 526 -182 q 545 -192 569 -192 q 592 -192 615 -180 q 637 -168 655 -153 q 676 -136 695 -114 q 700 -110 705 -109 q 710 -109 713 -109 q 726 -111 734 -119 q 743 -126 748 -136 q 753 -146 756 -158 q 758 -169 758 -179 q 758 -192 755 -197 q 752 -202 750 -205 q 750 -205 741 -214 q 733 -222 718 -235 q 703 -248 682 -262 q 662 -277 636 -290 q 611 -302 583 -311 q 554 -319 523 -319 q 486 -319 460 -305 q 435 -291 416 -268 q 398 -246 386 -219 q 374 -192 364 -166 q 354 -140 346 -118 q 337 -97 325 -85 q 251 -72 198 -36 q 146 0 112 52 q 78 104 62 170 q 47 235 47 307 q 47 373 59 443 q 72 514 96 580 q 121 647 158 706 q 195 765 244 810 q 292 854 353 880 q 414 906 486 906 q 559 906 617 878 q 674 851 714 800 q 754 750 776 678 q 797 606 797 520 z m 374 31 q 411 31 443 47 q 475 62 502 88 q 529 115 551 151 q 572 187 589 227 q 606 268 619 312 q 632 355 640 398 q 648 441 652 481 q 656 521 656 553 q 656 608 646 656 q 637 704 617 739 q 597 773 566 793 q 536 812 495 812 q 454 812 415 790 q 375 767 341 728 q 307 688 279 637 q 250 586 230 529 q 210 472 199 413 q 188 354 188 299 q 188 242 200 193 q 213 144 237 108 q 261 72 295 52 q 330 31 374 31 z"},"w":{"x_min":0,"x_max":631,"ha":631,"o":"m 275 241 q 261 188 241 144 q 222 100 200 68 q 178 36 155 18 q 131 0 109 0 q 71 0 53 56 q 35 112 35 222 q 35 238 35 250 q 35 262 36 274 q 36 286 40 309 q 43 333 44 353 q 45 357 47 369 q 48 381 52 396 q 56 412 62 428 q 68 444 77 458 q 87 471 100 480 q 113 489 131 489 l 143 488 q 164 488 176 479 q 187 471 187 457 l 148 173 l 154 173 q 176 223 194 274 q 212 325 226 358 q 239 391 252 415 q 264 439 279 456 q 293 472 312 480 q 330 488 355 488 q 377 488 388 479 q 400 471 400 457 l 354 173 l 362 173 l 483 454 q 489 467 509 478 q 528 488 555 488 q 583 488 600 477 q 617 465 617 447 q 617 434 613 418 q 608 402 603 389 q 597 375 592 366 q 587 356 587 355 q 576 336 565 310 q 553 283 546 271 q 538 256 532 243 q 539 224 549 209 q 559 196 572 186 q 586 175 605 175 q 621 175 642 183 q 663 192 682 203 q 704 215 727 230 l 727 116 q 694 95 660 83 q 625 71 594 71 q 569 71 547 77 q 524 83 508 95 q 491 108 481 128 q 471 148 470 177 q 454 138 436 106 q 417 73 398 50 q 379 26 360 13 q 340 0 321 0 q 314 0 309 10 q 304 21 300 39 q 297 57 295 80 q 292 104 291 130 q 290 157 290 185 q 289 212 289 239 z"},"-":{"x_min":0,"x_max":375,"ha":375,"o":"m 297 344 q 303 344 312 342 q 320 341 327 337 q 333 333 338 325 q 343 318 343 307 q 343 297 341 287 q 339 277 332 269 q 326 261 313 255 q 301 250 281 250 l 78 250 q 62 250 53 256 q 44 261 39 269 q 34 277 32 287 q 31 296 31 303 q 31 310 32 317 q 34 324 39 330 q 43 336 53 340 q 62 344 78 344 z"},"E":{"x_min":0,"x_max":631,"ha":631,"o":"m 721 122 q 682 80 632 49 q 583 17 529 -4 q 475 -25 419 -36 q 363 -47 311 -47 q 253 -47 203 -33 q 152 -20 114 8 q 76 35 53 77 q 31 120 31 178 q 31 227 49 272 q 67 318 104 353 q 142 388 200 410 q 258 431 340 433 q 286 433 246 448 q 206 464 180 490 q 153 516 140 551 q 127 586 127 625 q 127 662 140 692 q 152 722 175 746 q 197 771 227 789 q 257 807 293 819 q 328 831 367 837 q 406 843 445 843 q 502 843 557 830 q 612 818 654 793 q 697 768 723 731 q 749 693 749 644 q 749 626 737 609 q 725 592 708 578 q 691 565 673 557 q 655 549 643 549 q 632 549 632 567 q 632 583 637 608 q 643 634 655 672 q 642 683 616 693 q 591 704 559 713 q 527 722 491 727 q 455 733 419 733 q 387 733 357 727 q 327 721 304 708 q 282 694 268 672 q 255 650 255 618 q 255 592 264 574 q 274 556 290 543 q 306 530 326 522 q 347 514 369 508 q 391 501 412 496 q 433 490 451 482 q 469 475 481 464 q 493 453 497 437 q 498 427 499 416 q 500 406 500 396 q 500 369 490 356 q 479 344 450 344 q 437 344 418 345 q 399 347 382 347 q 343 347 306 337 q 268 327 238 307 q 208 287 190 258 q 172 229 172 190 q 172 154 182 129 q 193 105 211 90 q 229 75 254 69 q 279 62 308 62 q 343 62 381 69 q 419 76 457 88 q 495 100 531 116 q 566 133 597 152 q 628 170 651 191 q 675 212 688 233 z"},"s":{"x_min":0,"x_max":421,"ha":421,"o":"m 47 188 q 74 211 91 227 q 108 242 125 263 q 143 284 153 297 q 163 310 176 328 q 190 346 209 372 q 229 398 260 438 q 267 446 274 455 q 282 463 292 469 q 301 476 313 480 q 324 484 338 484 q 362 484 375 479 q 387 474 393 467 q 399 459 400 451 q 401 443 401 438 q 401 426 392 412 q 382 397 371 384 q 360 371 350 360 q 340 349 338 344 q 338 329 341 316 q 343 304 346 292 q 350 280 354 266 q 358 253 362 235 q 365 218 363 187 q 360 156 360 125 q 377 137 398 146 q 418 156 440 166 q 462 176 485 189 q 508 201 532 219 l 532 109 q 502 86 462 65 q 422 45 379 29 q 335 14 290 5 q 246 -4 206 -4 q 177 -4 152 1 q 127 6 108 18 q 89 29 78 48 q 66 66 63 93 q 57 91 50 91 q 43 90 37 90 q 29 90 22 91 q 16 91 11 94 q 6 98 3 105 q 0 112 0 125 q 0 137 6 147 q 12 157 20 165 q 27 172 35 178 q 43 184 47 188 z m 109 125 q 115 125 122 118 q 129 110 139 102 q 148 93 160 85 q 172 78 188 78 q 207 78 219 84 q 232 91 239 101 q 247 112 250 126 q 252 140 252 155 q 252 168 251 182 q 249 195 251 216 q 253 236 250 247 q 247 258 245 266 z"},">":{"x_min":0,"x_max":578,"ha":578,"o":"m 346 125 q 317 115 288 102 q 258 90 230 79 q 202 67 177 60 q 151 52 130 52 q 106 52 93 62 q 80 73 80 90 q 80 106 84 120 q 89 134 96 144 q 103 155 110 162 q 118 169 124 172 l 458 299 l 105 406 q 88 412 78 421 q 67 431 67 450 q 67 451 68 457 q 68 463 70 472 q 71 481 74 491 q 78 501 84 510 q 90 519 99 524 q 108 530 121 530 q 132 530 143 526 q 159 521 184 512 q 210 503 239 491 q 269 479 298 467 q 328 455 352 445 q 376 435 392 428 q 407 422 408 421 q 436 409 462 400 q 488 391 508 379 q 529 368 541 351 q 554 334 554 306 q 554 275 545 251 q 536 228 512 207 q 489 187 448 167 q 408 147 346 125 z"},"l":{"x_min":0,"x_max":263,"ha":263,"o":"m 171 0 q 145 0 122 23 q 100 46 83 85 q 66 125 56 176 q 47 228 47 284 q 47 328 53 379 q 60 430 72 484 q 84 538 101 593 q 118 647 139 698 q 160 748 185 792 q 210 835 237 868 q 265 900 294 919 q 324 938 355 938 q 376 938 390 928 q 403 918 411 903 q 419 887 422 867 q 425 848 425 827 q 425 781 415 734 q 404 686 386 638 q 369 590 345 542 q 322 493 296 446 q 271 398 245 352 q 220 306 197 262 q 195 257 192 249 q 189 241 187 232 q 185 223 182 213 q 180 203 178 193 l 178 186 q 178 173 181 161 q 184 149 188 140 q 191 130 196 125 q 200 119 204 119 q 213 119 225 123 q 237 127 251 134 q 264 140 278 149 q 292 157 306 166 q 336 187 370 213 l 410 111 q 367 80 324 55 q 306 45 286 35 q 266 25 246 17 q 226 9 207 5 q 188 0 171 0 z m 172 391 q 194 430 219 479 q 243 527 265 579 q 287 631 303 682 q 319 734 324 778 q 324 792 323 802 q 322 812 318 812 q 304 812 288 794 q 271 776 255 745 q 239 713 224 672 q 209 630 197 583 q 186 537 179 487 q 172 438 172 391 z"},"8":{"x_min":0,"x_max":391,"ha":391,"o":"m 72 404 q 72 454 90 480 q 107 507 134 525 q 162 543 196 552 q 230 561 264 561 q 292 561 318 555 q 344 549 364 537 q 383 525 395 508 q 407 490 407 467 q 407 424 395 386 q 382 348 362 324 q 342 301 316 283 q 289 266 261 252 q 282 236 302 219 q 322 201 338 182 q 354 162 363 140 q 372 117 372 91 q 372 57 358 29 q 344 0 320 -20 q 295 -40 261 -51 q 228 -62 188 -62 q 159 -62 129 -57 q 99 -51 73 -35 q 48 -20 32 8 q 16 36 16 79 q 16 116 27 145 q 39 173 57 196 q 76 219 100 236 q 124 254 148 270 q 109 295 91 331 q 72 367 72 404 z m 244 500 q 229 500 217 496 q 204 491 194 482 q 185 474 179 461 q 173 449 173 419 q 173 406 176 392 q 179 378 184 364 q 189 350 197 336 q 205 323 215 312 q 231 322 247 338 q 262 354 274 372 q 287 389 294 414 q 301 438 301 453 q 301 465 296 474 q 292 483 283 489 q 275 495 265 498 q 254 500 244 500 z m 247 116 q 247 141 235 159 q 223 178 206 195 q 187 186 171 176 q 154 166 142 153 q 130 140 124 124 q 117 108 117 88 q 117 73 122 61 q 126 49 134 41 q 141 33 150 29 q 159 25 167 25 q 182 25 196 31 q 210 36 222 48 q 233 59 240 76 q 247 93 247 116 z"},"\\":{"x_min":0,"x_max":609,"ha":609,"o":"m 203 859 q 218 827 239 781 q 260 734 285 679 q 310 624 337 564 q 364 503 391 444 q 417 384 443 328 q 468 272 489 226 q 510 179 525 145 q 540 111 547 96 q 557 74 561 57 q 566 40 566 27 q 566 3 551 -8 q 536 -19 514 -19 q 502 -19 489 -16 q 476 -12 464 -6 q 452 0 441 10 q 431 20 423 31 q 363 153 313 266 q 264 378 223 477 q 182 575 149 655 q 116 735 90 792 q 83 809 79 824 q 76 839 76 851 q 76 866 80 877 q 84 888 92 895 q 100 903 110 906 q 120 910 130 910 q 151 910 171 897 q 191 885 203 859 z"},"e":{"x_min":0,"x_max":368,"ha":368,"o":"m 228 0 q 182 0 147 17 q 113 33 90 61 q 67 89 55 126 q 44 163 44 204 q 44 231 54 269 q 64 307 75 336 q 86 365 103 392 q 120 418 142 439 q 164 459 192 471 q 219 483 253 483 q 280 483 304 474 q 327 465 344 449 q 362 434 372 411 q 381 389 381 361 q 381 331 362 293 q 342 255 315 229 q 289 202 253 181 q 216 160 174 148 q 181 135 188 126 q 195 117 203 112 q 210 107 218 105 q 226 104 235 104 q 265 104 297 115 q 330 127 360 145 q 391 162 418 183 q 446 204 465 222 l 528 157 q 485 112 437 78 q 416 63 391 49 q 367 35 341 24 q 314 13 285 7 q 257 0 228 0 z m 163 229 q 180 229 201 239 q 222 248 240 262 q 257 276 274 300 q 292 324 292 339 q 292 361 283 375 q 275 390 264 390 q 243 390 228 382 q 213 374 203 362 q 193 349 187 333 q 181 317 173 294 q 165 271 164 255 q 163 240 163 229 z"},"b":{"x_min":0,"x_max":474,"ha":474,"o":"m 221 393 q 248 427 271 448 q 293 469 316 469 q 345 469 367 456 q 390 443 405 422 q 421 401 429 374 q 438 347 438 317 q 438 292 436 270 q 434 248 428 226 q 423 205 414 184 q 405 163 391 141 q 408 151 426 161 q 444 170 463 182 q 481 194 500 208 q 518 223 538 242 l 575 162 q 548 137 522 119 q 495 101 467 88 q 439 74 408 64 q 378 55 344 47 q 335 39 321 30 q 307 22 292 15 q 276 7 258 0 l 246 0 q 169 0 163 2 q 104 18 89 27 q 62 45 36 64 q 37 104 42 154 q 45 197 52 260 q 62 352 70 395 q 75 443 82 502 q 88 547 101 614 q 114 681 134 738 q 153 795 177 839 q 202 884 230 911 q 259 938 292 938 q 329 938 352 925 q 374 912 386 890 q 398 869 402 839 q 406 810 406 777 q 406 730 389 681 q 372 632 344 583 q 316 534 281 487 q 247 440 213 398 z m 265 357 q 248 357 230 350 q 213 343 199 328 q 184 313 173 290 q 151 245 156 234 q 156 233 149 176 q 146 154 144 137 q 142 117 141 100 q 157 95 173 92 q 187 89 203 91 q 218 94 232 94 q 249 94 263 104 q 276 113 287 130 q 298 146 306 167 q 313 188 318 211 q 323 233 326 256 q 328 278 328 296 q 328 309 325 320 q 323 331 316 339 q 309 347 296 352 q 284 357 265 357 z m 312 805 q 312 807 312 813 q 311 819 308 826 q 306 833 301 838 q 296 844 288 844 q 278 844 267 830 q 257 816 247 792 q 236 769 227 738 q 217 707 208 673 q 198 639 190 604 q 182 568 176 537 q 169 505 164 479 q 159 453 156 437 q 169 462 186 490 q 202 517 219 547 q 235 576 251 607 q 267 638 280 671 q 293 703 302 737 q 310 770 312 805 z"},"%":{"x_min":0,"x_max":1105,"ha":1105,"o":"m 229 328 q 186 328 153 346 q 120 364 98 394 q 75 424 64 464 q 53 503 53 547 q 53 583 60 618 q 66 654 80 687 q 93 720 114 748 q 134 777 161 798 q 188 819 222 832 q 256 844 297 844 q 343 844 375 828 q 408 812 429 784 q 451 756 461 719 q 471 682 471 641 q 471 605 463 568 q 455 531 440 497 q 426 462 405 431 q 383 400 356 377 q 330 354 298 341 q 266 328 229 328 z m 238 422 q 260 422 281 442 q 301 463 317 495 q 333 527 342 566 q 352 605 352 642 q 352 664 348 683 q 344 703 336 718 q 328 733 315 741 q 302 750 284 750 q 258 750 238 733 q 218 716 205 688 q 191 661 185 626 q 178 592 178 557 q 178 530 181 506 q 185 481 193 463 q 200 444 211 433 q 223 422 238 422 z m 677 828 q 682 837 689 845 q 697 854 709 860 q 720 867 736 871 q 752 875 772 875 q 785 875 790 866 q 794 857 794 845 q 794 836 793 826 q 791 816 789 807 q 786 798 783 790 q 780 782 778 777 q 760 740 734 686 q 709 631 679 567 q 649 503 617 433 q 584 362 552 293 q 519 225 488 161 q 456 98 429 47 q 421 32 409 23 q 396 14 383 9 q 370 4 357 2 q 344 0 335 0 q 322 0 313 4 q 305 7 300 14 q 294 20 292 29 q 290 37 290 47 q 290 64 295 83 q 300 101 307 116 q 315 131 331 162 q 347 194 369 237 q 391 279 418 331 q 444 382 473 437 q 501 492 530 548 q 559 604 586 656 q 613 707 636 751 q 660 796 677 828 z m 822 31 q 778 31 746 48 q 713 64 691 93 q 669 121 658 158 q 647 195 647 235 q 647 272 654 310 q 661 348 674 382 q 688 417 708 447 q 728 477 754 499 q 781 521 815 534 q 849 547 890 547 q 933 547 964 529 q 995 512 1015 482 q 1036 452 1045 413 q 1055 373 1055 329 q 1055 295 1047 260 q 1040 225 1025 192 q 1011 159 991 130 q 970 101 944 79 q 918 57 888 44 q 857 31 822 31 z m 831 125 q 851 125 870 143 q 889 161 903 190 q 917 218 926 253 q 935 287 935 320 q 935 347 931 371 q 928 395 921 413 q 915 432 904 442 q 893 453 877 453 q 851 453 832 435 q 812 417 799 386 q 786 356 779 318 q 772 280 772 241 q 772 219 776 198 q 779 177 786 161 q 793 145 804 135 q 815 125 831 125 z"},"m":{"x_min":0,"x_max":631,"ha":631,"o":"m 266 91 q 266 98 267 109 q 268 121 270 136 q 271 151 274 168 q 276 185 279 202 q 284 241 292 286 l 285 286 q 279 278 271 264 q 264 249 250 221 q 236 192 215 147 q 194 102 160 34 q 150 14 137 7 q 125 0 109 0 q 89 0 77 9 q 64 17 58 31 q 51 46 49 64 q 47 83 47 102 q 47 122 49 149 q 52 177 56 207 q 60 237 67 276 q 75 315 80 344 q 86 373 92 396 q 98 420 103 436 q 107 451 112 460 q 116 470 122 475 q 127 480 135 482 q 143 483 155 483 q 174 483 184 482 q 195 481 200 476 q 205 472 206 463 q 207 454 207 439 q 207 431 206 420 q 206 409 204 397 q 203 385 201 372 q 198 348 197 347 q 190 313 183 272 l 188 267 q 189 268 201 292 q 213 317 227 341 q 241 365 257 391 q 273 417 288 437 q 302 457 318 470 q 334 483 356 483 q 376 483 391 471 q 406 459 406 438 q 406 418 403 401 q 400 379 397 368 q 394 355 390 337 q 386 321 377 291 q 376 286 375 276 q 374 273 374 272 l 379 267 q 380 268 393 292 q 406 316 421 340 q 436 364 452 391 q 469 417 484 437 q 498 457 512 470 q 526 483 547 483 q 570 483 586 471 q 602 459 602 438 q 602 404 598 374 q 595 343 588 307 q 581 270 578 240 q 574 210 574 176 q 574 150 581 133 q 588 117 598 117 q 608 117 619 121 q 630 125 642 132 q 654 139 665 148 q 676 157 687 167 q 710 189 734 218 l 742 103 q 721 85 699 67 q 678 49 655 34 q 631 19 603 10 q 574 0 539 0 q 521 0 509 11 q 497 23 490 43 q 482 64 479 92 q 476 120 476 152 q 476 183 478 218 q 480 252 484 287 l 477 287 l 378 35 q 365 14 350 7 q 334 0 313 0 q 298 0 289 9 q 279 17 274 31 q 269 44 267 60 q 266 76 266 91 z"},"#":{"x_min":0,"x_max":684,"ha":684,"o":"m 236 469 q 224 469 212 472 q 201 475 191 481 q 182 487 176 497 q 170 507 170 521 q 170 540 180 551 q 189 562 206 568 q 222 574 244 576 q 265 578 289 578 l 314 578 l 382 728 q 387 739 396 752 q 405 764 418 774 q 431 784 447 790 q 463 796 482 796 q 492 796 498 792 q 504 788 506 782 q 509 776 509 769 q 510 761 510 755 q 510 751 507 744 q 505 737 501 728 q 498 719 494 710 q 490 702 487 696 q 476 671 463 642 q 451 612 437 578 q 468 578 501 578 q 534 579 568 579 q 584 624 598 663 q 612 702 623 729 q 627 741 635 754 q 643 766 655 776 q 667 786 683 792 q 698 798 717 798 q 727 798 733 794 q 739 790 742 784 q 746 778 747 771 q 748 763 749 757 q 749 753 747 746 q 745 738 742 730 q 739 721 736 713 q 733 704 731 698 q 722 673 711 643 q 701 613 690 579 l 751 579 q 764 579 771 576 q 779 574 784 569 q 788 565 790 560 q 792 554 792 548 q 792 531 786 517 q 780 502 766 492 q 752 481 729 475 q 706 469 671 469 l 654 469 q 643 436 631 401 q 619 366 606 329 l 648 329 q 661 328 668 325 q 676 322 681 318 q 685 313 687 308 q 688 303 688 297 q 688 281 683 266 q 677 252 663 241 q 649 231 626 225 q 603 219 568 219 l 567 219 q 550 172 531 125 q 512 77 492 27 q 486 13 479 4 q 471 -4 463 -8 q 456 -13 448 -14 q 439 -15 432 -15 q 422 -15 413 -13 q 404 -12 396 -7 q 389 -2 385 6 q 380 15 380 29 q 380 50 392 84 l 439 218 q 403 218 364 218 q 324 217 281 217 q 260 171 237 123 q 214 75 189 25 q 182 11 174 2 q 166 -6 157 -10 q 149 -15 141 -16 q 133 -17 125 -17 q 117 -17 109 -16 q 100 -15 93 -11 q 86 -7 82 1 q 78 8 78 21 q 78 32 82 47 q 85 62 94 82 l 155 218 q 152 218 150 219 q 148 219 146 219 q 135 219 123 222 q 111 225 102 231 q 93 237 87 247 q 81 257 81 271 q 81 285 86 293 q 91 302 98 308 q 106 314 115 318 q 125 322 134 325 q 140 328 155 328 q 170 328 185 328 l 203 328 l 266 469 z m 391 469 q 376 435 362 400 q 347 365 330 327 l 331 327 q 367 327 404 327 q 441 327 479 327 q 491 362 503 397 q 516 433 529 469 z"},",":{"x_min":0,"x_max":297,"ha":297,"o":"m 143 -35 q 145 -29 147 -19 q 149 -9 153 3 q 156 15 159 28 q 163 41 167 53 q 175 83 184 116 q 187 126 194 134 q 200 142 209 147 q 218 152 229 154 q 240 157 251 157 q 265 157 278 153 q 292 149 303 142 q 314 135 321 124 q 328 114 328 100 q 328 90 324 81 q 321 72 315 61 q 306 46 295 30 q 284 13 273 -4 q 262 -21 251 -36 q 241 -52 233 -63 q 221 -79 207 -86 q 193 -93 180 -93 q 164 -93 152 -83 q 140 -72 140 -53 q 140 -45 143 -35 z"},"n":{"x_min":0,"x_max":474,"ha":474,"o":"m 62 102 q 62 134 66 177 q 70 219 76 269 q 82 320 89 360 q 97 401 104 430 q 109 452 124 467 q 140 482 166 482 q 192 482 203 466 q 213 450 213 423 q 213 416 211 404 q 210 391 208 376 q 206 361 203 345 q 201 330 198 309 q 196 289 195 279 q 193 269 193 266 l 203 266 q 206 271 212 283 q 219 295 227 317 q 235 340 245 357 q 254 375 263 390 q 271 406 278 418 q 285 431 288 437 q 304 463 324 473 q 344 482 368 482 q 393 482 407 462 q 421 441 421 405 q 421 400 419 387 q 417 375 414 357 q 410 339 406 312 q 402 284 398 262 q 395 240 393 218 q 391 197 391 179 q 391 148 398 129 q 406 109 422 109 q 428 109 438 114 q 455 120 459 124 q 480 141 481 140 q 483 140 514 160 q 553 185 607 221 l 607 111 l 583 93 q 580 90 537 67 q 475 34 459 27 q 421 10 412 8 q 387 0 360 0 q 333 0 315 39 q 297 78 297 152 q 297 182 301 216 q 305 250 311 289 l 303 289 l 175 35 q 165 14 153 7 q 141 0 125 0 q 104 0 92 9 q 80 17 73 31 q 67 46 65 64 q 62 83 62 102 z"},"h":{"x_min":0,"x_max":526,"ha":526,"o":"m 231 304 q 251 330 276 360 q 301 391 343 430 q 384 470 411 487 q 438 504 461 504 q 467 504 474 502 q 481 500 488 494 q 495 488 499 478 q 503 467 503 451 q 503 417 494 386 q 485 354 459 310 q 433 265 424 232 q 415 199 415 164 q 415 144 421 132 q 427 121 436 121 q 448 121 461 125 q 474 130 487 138 q 500 146 513 156 q 526 166 537 177 q 564 202 590 233 l 598 104 q 589 97 576 86 q 562 76 546 65 q 530 53 511 42 q 492 30 472 21 q 453 12 434 6 q 415 0 397 0 q 370 0 350 14 q 331 29 318 51 q 305 73 299 100 q 292 126 292 149 q 292 165 297 184 q 301 204 307 223 q 313 243 321 261 q 328 280 335 294 q 341 309 346 318 q 351 328 353 329 l 342 331 q 334 325 314 303 q 294 281 270 248 q 245 214 218 173 q 191 131 170 86 q 159 64 152 48 q 146 32 139 21 q 132 11 125 5 q 117 0 104 0 q 88 0 79 9 q 70 19 65 34 q 60 49 59 69 q 57 88 57 109 q 57 142 58 195 q 59 248 62 312 q 66 376 74 448 q 81 519 94 589 q 108 658 128 721 q 148 785 177 833 q 207 881 246 909 q 285 938 335 938 q 362 938 379 930 q 396 922 406 908 q 416 894 419 874 q 423 854 423 830 q 423 793 413 750 q 403 706 386 658 q 369 611 348 562 q 326 514 304 468 q 281 422 260 382 q 238 341 221 311 z m 274 605 q 303 680 316 731 q 329 783 329 807 q 329 844 319 844 q 307 844 282 803 q 257 761 223 682 q 215 655 208 626 q 201 598 195 569 q 189 541 185 513 q 180 485 177 460 q 168 402 164 347 q 177 377 193 414 q 208 450 224 485 q 239 521 252 552 q 266 583 274 605 z"},"z":{"x_min":0,"x_max":315,"ha":315,"o":"m 13 91 q 13 102 17 109 q 21 116 27 123 q 34 129 42 135 q 50 142 59 152 l 216 366 q 207 370 201 373 q 194 376 189 379 q 184 382 179 383 q 173 385 167 385 q 151 385 141 384 q 131 384 124 381 q 117 378 111 372 q 105 366 99 355 q 83 332 73 321 q 63 310 55 310 q 47 310 44 317 q 41 324 41 336 q 41 341 41 346 q 42 352 42 358 q 50 400 63 427 q 77 453 94 468 q 111 482 129 487 q 147 492 163 492 q 175 492 187 487 q 198 481 210 474 q 221 467 233 462 q 245 456 258 456 q 268 455 276 455 q 284 455 291 455 q 310 455 322 456 q 333 457 340 458 q 346 458 348 459 q 351 460 352 460 q 369 460 377 448 q 384 436 384 416 q 384 399 381 387 q 380 383 372 377 q 363 371 342 366 q 336 355 323 335 q 309 316 291 292 q 273 268 252 238 q 230 208 213 185 q 195 163 182 147 q 169 130 165 125 l 163 115 q 163 115 171 111 q 180 108 191 104 q 202 100 215 96 q 227 93 236 93 q 257 93 274 99 q 291 105 305 114 q 319 124 332 134 q 344 145 356 154 q 367 163 378 169 q 390 175 402 175 q 411 175 419 171 q 426 167 431 160 q 437 153 439 144 q 442 136 442 127 q 442 113 431 98 q 420 83 402 68 q 384 53 360 40 q 336 27 310 17 q 284 7 257 1 q 230 -5 206 -5 q 204 -5 196 -3 q 188 -1 174 4 q 160 8 142 16 q 124 23 103 34 q 84 28 70 28 q 56 28 45 33 q 34 39 27 47 q 20 56 17 67 q 13 79 13 91 z"},"B":{"x_min":0,"x_max":684,"ha":684,"o":"m 44 649 q 12 592 -13 563 q -38 534 -53 534 q -75 534 -75 583 q -75 631 -61 669 q -47 708 -23 737 q 2 767 36 787 q 70 808 110 822 q 150 835 195 841 q 240 848 288 848 q 343 848 398 840 q 454 832 505 817 q 557 802 601 781 q 646 761 678 736 q 711 710 730 681 q 749 652 749 620 q 749 583 733 546 q 716 509 681 480 q 646 450 592 431 q 538 412 461 411 q 510 411 546 395 q 582 380 606 354 q 631 328 643 291 q 655 255 655 217 q 655 187 647 155 q 639 123 622 94 q 605 64 581 39 q 556 13 522 -6 q 489 -25 447 -36 q 405 -47 354 -47 q 323 -47 288 -43 q 252 -39 217 -31 q 181 -24 146 -15 q 111 -5 81 6 q 67 10 56 17 q 46 23 46 41 q 46 122 50 207 q 54 292 67 375 q 80 458 101 520 q 123 582 162 640 q 197 664 225 664 q 261 664 285 624 q 262 593 246 556 q 230 519 222 490 q 214 461 207 419 q 201 376 197 336 q 194 313 193 285 q 191 257 189 230 q 188 203 187 177 q 187 150 187 125 q 187 122 187 115 q 187 108 188 101 q 189 93 191 87 q 193 81 197 78 q 227 68 261 62 q 295 55 329 55 q 371 55 410 65 q 449 75 479 96 q 509 118 528 152 q 546 186 546 239 q 546 267 535 286 q 524 305 507 317 q 490 330 468 338 q 445 345 422 351 q 399 357 377 363 q 354 369 337 378 q 320 387 309 401 q 298 414 298 436 q 298 446 300 453 q 301 461 305 466 q 310 471 319 473 q 328 476 344 476 q 365 476 382 474 q 399 472 419 472 q 466 472 504 484 q 542 495 569 515 q 595 534 610 560 q 624 586 624 616 q 624 636 613 652 q 602 668 581 681 q 561 694 534 704 q 506 714 474 720 q 442 727 406 730 q 371 733 334 733 q 275 733 242 729 q 197 725 158 714 q 120 704 90 687 q 60 670 44 649 z"},"K":{"x_min":0,"x_max":947,"ha":947,"o":"m 599 731 q 594 688 591 645 q 587 601 584 565 q 581 523 578 484 q 629 484 672 487 q 714 490 749 500 q 784 509 810 527 q 837 545 855 574 q 873 604 882 647 q 891 690 891 750 q 891 774 891 789 q 891 803 896 811 q 901 819 914 822 q 927 826 953 828 q 972 828 984 823 q 996 818 1003 811 q 1009 803 1011 796 q 1014 788 1014 783 q 1015 772 1015 754 q 1015 735 1016 720 q 1016 665 1009 619 q 1001 573 985 537 q 969 500 942 473 q 915 445 875 427 q 834 409 781 400 q 727 391 656 391 q 714 252 715 251 q 744 196 781 114 q 797 81 829 55 q 854 34 884 34 q 902 34 925 39 q 947 44 970 54 q 994 63 1017 77 q 1040 90 1059 105 l 1116 10 q 1116 10 1106 4 q 1097 -2 1081 -11 q 1064 -21 1041 -32 q 1019 -43 991 -53 q 964 -62 933 -69 q 903 -75 871 -75 q 836 -75 809 -64 q 782 -53 760 -34 q 739 -15 713 30 q 687 75 672 104 q 658 134 643 168 q 627 202 614 232 q 600 263 583 292 q 567 320 547 344 q 521 244 486 173 q 452 102 409 57 q 366 11 317 -10 q 267 -31 212 -31 q 193 -31 167 -29 q 141 -26 117 -21 q 94 -15 77 -5 q 61 4 61 18 q 61 31 67 42 q 73 53 80 64 q 82 67 86 73 q 90 78 96 83 q 102 88 109 92 q 116 96 123 96 q 125 96 127 95 q 144 87 161 83 q 179 78 195 78 q 239 78 274 105 q 310 132 338 178 q 367 225 388 287 q 410 350 426 422 q 442 494 454 572 q 465 649 473 725 l 479 766 q 436 766 401 755 q 367 745 339 728 q 312 710 292 687 q 272 664 260 638 q 247 613 240 586 q 234 560 234 536 q 234 533 233 527 q 231 521 225 515 q 219 509 207 505 q 195 500 174 500 q 146 500 131 505 q 115 510 107 516 q 99 523 96 530 q 94 538 94 542 l 94 547 q 94 548 94 548 q 102 614 129 662 q 155 709 194 742 q 232 775 279 795 q 326 815 373 826 q 419 836 463 840 q 507 844 540 844 q 559 844 571 839 q 583 835 589 828 q 596 821 599 813 q 601 805 601 797 q 601 777 601 761 q 601 745 599 731 z"},"R":{"x_min":0,"x_max":842,"ha":842,"o":"m 891 617 q 891 593 883 567 q 875 542 859 516 q 843 491 818 468 q 792 444 757 426 q 722 407 677 395 q 632 382 576 379 q 610 366 633 346 q 656 326 672 302 q 687 277 696 250 q 705 222 711 196 q 718 169 723 145 q 728 121 735 103 q 742 84 753 73 q 764 62 782 62 q 798 62 818 68 q 838 74 859 84 q 879 94 900 108 q 920 123 938 140 l 994 44 q 994 44 985 38 q 976 31 959 21 q 942 11 920 -1 q 897 -13 870 -23 q 842 -33 812 -40 q 781 -47 750 -47 q 714 -47 689 -29 q 664 -12 646 17 q 628 46 617 83 q 605 120 596 158 q 587 197 580 234 q 572 271 563 299 q 554 328 541 346 q 528 363 509 363 l 479 363 q 469 256 454 172 q 439 87 415 28 q 391 -31 355 -62 q 318 -94 266 -94 q 227 -94 194 -79 q 162 -64 135 -38 q 109 -12 90 22 q 70 57 57 97 q 44 137 38 179 q 31 222 31 264 q 31 339 50 412 q 69 484 104 549 q 140 613 190 667 q 240 721 303 760 q 366 800 440 822 q 514 844 596 844 q 633 844 669 837 q 705 830 738 817 q 771 804 799 784 q 827 765 847 740 q 867 714 879 684 q 891 653 891 617 z m 587 734 q 507 734 444 712 q 380 689 333 651 q 285 613 251 563 q 217 513 196 458 q 175 402 166 346 q 156 289 156 238 q 156 198 163 158 q 170 119 185 87 q 199 55 222 35 q 246 16 278 16 q 295 16 308 29 q 320 42 330 63 q 340 85 347 114 q 354 142 359 173 q 364 204 367 235 q 370 266 372 293 q 374 321 374 342 q 375 363 375 375 q 336 393 317 408 q 297 424 297 444 q 297 449 298 456 q 298 463 301 469 q 303 475 308 479 q 312 483 320 483 q 324 483 334 482 q 344 480 355 479 q 367 477 376 476 q 386 475 389 475 l 389 485 q 390 493 391 506 q 392 520 395 536 q 398 551 404 567 q 409 583 418 596 q 428 609 441 617 q 454 625 472 625 q 497 625 505 614 q 513 603 513 586 l 513 582 q 512 563 507 532 q 502 502 498 462 q 577 463 629 478 q 681 492 711 514 q 741 536 753 562 q 766 588 766 613 q 766 637 754 659 q 743 681 720 698 q 698 714 665 724 q 631 734 587 734 z"},"T":{"x_min":0,"x_max":737,"ha":737,"o":"m 97 649 q 97 690 114 721 q 131 751 161 773 q 192 794 235 808 q 277 822 329 830 q 380 838 438 841 q 497 844 560 844 q 645 844 738 837 q 831 830 932 812 q 955 807 965 794 q 974 782 974 766 q 974 756 970 747 q 965 738 958 730 q 951 722 941 718 q 931 713 920 713 q 883 713 842 717 q 801 721 757 726 q 713 730 666 735 q 619 740 569 743 q 561 688 547 625 q 533 562 517 496 q 500 431 483 365 q 465 300 448 241 q 432 182 417 131 q 403 81 394 45 q 390 28 382 14 q 374 0 364 -10 q 354 -20 343 -26 q 332 -31 323 -31 q 295 -31 277 -18 q 259 -5 259 24 q 259 34 262 45 q 268 89 279 132 q 289 175 303 222 q 317 269 335 321 q 354 373 375 436 q 397 499 423 574 q 449 650 479 743 q 453 741 426 738 q 399 736 374 732 q 349 728 327 721 q 306 715 289 705 q 273 695 263 682 q 254 668 254 649 q 254 648 253 639 q 251 629 244 617 q 237 606 221 596 q 205 587 176 587 q 146 587 130 597 q 114 606 107 618 q 98 632 97 649 z"},"P":{"x_min":0,"x_max":684,"ha":684,"o":"m 468 890 q 550 890 612 868 q 673 846 714 809 q 755 772 776 724 q 797 676 797 625 q 797 577 778 530 q 760 483 722 444 q 685 404 628 375 q 571 347 495 335 q 493 299 492 270 q 492 257 491 244 q 491 231 490 221 q 490 210 490 203 q 490 195 490 192 q 489 158 482 121 q 475 84 461 49 q 448 14 428 -18 q 409 -49 384 -73 q 358 -97 326 -111 q 294 -125 257 -125 q 217 -125 185 -104 q 154 -83 130 -48 q 106 -13 90 33 q 74 79 63 129 q 53 179 49 230 q 44 281 44 326 q 44 403 58 475 q 72 546 99 609 q 125 672 163 724 q 200 775 247 812 q 294 850 350 870 q 405 890 468 890 z m 175 338 q 175 318 175 284 q 175 250 178 212 q 180 173 186 134 q 191 94 201 62 q 212 30 228 10 q 244 -10 268 -10 q 292 -10 310 7 q 328 24 339 52 q 351 80 358 115 q 365 149 368 185 q 372 220 373 252 q 374 284 374 306 l 374 329 q 333 345 310 357 q 287 370 275 381 q 263 392 260 405 q 257 417 257 434 q 257 442 257 451 q 258 459 260 466 q 262 473 266 477 q 271 481 278 481 q 283 481 287 479 q 291 477 297 474 q 313 465 327 459 q 340 454 349 450 q 360 446 369 444 q 369 451 369 469 q 369 488 372 512 q 375 537 381 563 q 387 589 399 611 q 412 633 431 648 q 451 662 479 662 q 488 662 498 660 q 507 659 514 654 q 522 649 527 642 q 532 634 532 622 q 532 618 532 617 q 532 616 532 614 l 502 488 l 498 450 q 545 457 580 473 q 615 489 637 511 q 660 533 671 560 q 682 586 682 614 q 682 641 672 670 q 661 698 635 722 q 609 745 566 760 q 522 775 457 775 q 407 775 367 757 q 327 738 296 706 q 265 673 242 630 q 219 587 204 539 q 189 490 182 439 q 175 387 175 338 z"},"|":{"x_min":0,"x_max":609,"ha":609,"o":"m 349 828 q 351 842 357 856 q 363 870 374 881 q 385 892 400 899 q 416 906 436 906 q 449 906 458 900 q 466 893 472 884 q 477 875 479 865 q 482 855 482 849 q 482 843 481 836 q 481 828 480 820 q 479 812 478 805 q 477 797 476 792 q 472 764 465 722 q 458 681 451 632 q 443 583 435 528 q 427 473 418 417 q 410 362 402 308 q 394 255 387 208 q 380 161 375 124 q 370 86 366 62 q 363 41 353 26 q 343 12 331 2 q 318 -7 305 -11 q 292 -16 283 -16 q 271 -16 261 -9 q 252 -3 245 8 q 238 19 234 33 q 230 47 230 63 q 230 70 231 79 q 231 87 233 96 q 235 111 240 144 q 245 177 252 221 q 259 265 267 318 q 275 372 284 428 q 293 485 302 542 q 312 600 320 653 q 329 706 336 751 q 343 796 349 828 z"},"t":{"x_min":0,"x_max":368,"ha":368,"o":"m 469 109 q 422 82 385 62 q 349 41 320 27 q 292 14 269 7 q 247 0 229 0 q 192 0 164 22 q 135 45 116 87 q 97 129 88 189 q 78 250 78 325 q 78 354 81 387 q 83 420 87 453 q 73 455 65 457 q 57 458 48 460 q 39 462 25 464 q 11 466 -16 469 q -27 470 -34 474 q -40 479 -43 484 q -46 490 -46 496 q -47 502 -47 506 q -47 516 -37 521 q -28 526 -13 529 q 2 531 20 531 q 38 532 54 531 q 70 531 83 531 q 96 530 101 531 q 114 597 135 659 q 155 721 180 769 q 205 817 235 846 q 265 875 297 875 q 318 875 336 863 q 353 852 365 832 q 377 812 384 786 q 391 760 391 732 q 391 708 384 681 q 377 655 365 627 q 354 600 338 571 q 322 543 304 515 q 309 515 319 515 q 329 515 343 514 q 356 513 372 512 q 387 512 402 511 q 417 511 429 510 q 442 510 450 509 q 460 509 464 500 q 469 490 469 476 q 469 459 459 448 q 449 438 438 438 l 250 438 q 236 418 221 399 q 207 380 195 365 q 193 335 191 306 q 191 293 190 280 q 190 266 189 253 q 189 240 189 228 q 188 215 188 205 q 188 179 193 161 q 198 143 208 131 q 217 120 230 115 q 244 109 260 109 q 271 109 286 114 q 301 119 320 128 q 338 136 358 148 q 378 160 398 174 q 418 188 436 203 q 454 218 469 234 z m 312 728 q 312 733 312 740 q 311 746 309 752 q 306 758 301 762 q 296 766 287 766 q 274 766 261 743 q 248 721 236 686 q 224 651 214 609 q 203 567 194 527 q 202 526 209 526 q 216 525 224 524 q 239 549 255 578 q 271 607 283 635 q 296 663 304 688 q 312 712 312 728 z"},"M":{"x_min":0,"x_max":1052,"ha":1052,"o":"m 215 48 q 213 33 206 24 q 198 15 188 9 q 178 4 166 2 q 154 0 144 0 q 131 0 119 2 q 107 5 98 10 q 88 16 83 24 q 78 32 78 42 q 78 62 80 79 q 82 96 85 113 q 99 170 109 219 q 120 269 127 312 q 134 356 140 398 q 145 439 149 481 q 153 522 157 567 q 160 611 164 662 q 164 667 164 673 q 164 680 163 686 q 161 692 157 697 q 154 701 146 701 q 135 701 118 693 q 101 685 83 671 q 64 658 45 639 q 27 621 11 600 q 8 593 2 590 q -4 586 -12 586 q -15 586 -17 591 q -20 595 -22 601 q -24 606 -26 613 q -27 620 -27 625 q -27 628 -25 630 q -8 688 14 726 q 37 765 61 788 q 86 812 112 821 q 137 831 161 831 q 191 831 211 820 q 231 808 243 787 q 254 767 259 737 q 264 708 264 672 q 264 645 259 608 q 255 572 248 531 q 242 491 234 451 q 226 410 219 375 q 234 440 256 500 q 277 560 302 612 q 327 664 355 706 q 384 748 414 778 q 444 809 475 825 q 505 842 536 842 q 558 842 577 832 q 596 822 610 802 q 624 781 631 750 q 639 719 639 676 q 639 672 638 664 q 637 655 636 645 q 635 634 633 621 q 631 609 630 597 q 626 567 622 533 l 632 534 q 651 606 679 664 q 707 721 741 761 q 776 802 816 823 q 856 845 899 845 q 929 845 952 827 q 975 810 991 780 q 1006 750 1015 709 q 1023 669 1023 624 q 1023 582 1017 538 q 1012 494 1003 450 q 995 407 986 366 q 976 324 968 287 q 959 250 954 219 q 948 187 948 164 q 948 135 959 122 q 969 109 989 109 q 1000 109 1013 115 q 1025 122 1038 132 q 1050 142 1062 155 q 1075 167 1086 181 q 1112 212 1137 253 q 1137 252 1142 243 q 1145 234 1153 214 q 1161 194 1175 157 q 1150 114 1125 84 q 1099 54 1072 35 q 1045 17 1017 8 q 990 0 962 0 q 936 0 911 9 q 886 19 866 37 q 847 55 835 82 q 823 109 823 145 q 823 148 823 153 q 824 157 824 162 q 826 194 833 231 q 839 268 847 307 q 855 346 864 387 q 873 427 880 468 q 887 508 892 547 q 897 586 897 623 q 897 645 896 662 q 894 680 890 693 q 885 705 877 712 q 869 719 855 719 q 829 719 806 701 q 783 683 763 651 q 742 619 724 576 q 707 532 691 482 q 675 431 661 376 q 647 320 636 264 q 624 208 614 153 q 604 99 595 50 q 591 36 583 27 q 575 17 564 11 q 554 5 542 3 q 530 0 519 0 q 508 0 498 4 q 488 8 481 16 q 473 25 469 38 q 464 51 464 70 q 464 83 470 114 q 476 145 485 188 q 494 231 504 283 q 515 334 524 388 q 533 441 539 494 q 544 546 544 590 q 544 620 543 644 q 542 668 536 685 q 531 701 521 710 q 511 719 494 719 q 480 719 463 700 q 445 682 425 649 q 405 616 383 572 q 362 528 341 477 q 319 425 300 369 q 280 313 263 258 q 247 202 234 148 q 221 95 215 48 z"},"g":{"x_min":0,"x_max":474,"ha":474,"o":"m 164 -453 q 194 -453 220 -443 q 246 -434 265 -418 q 283 -402 298 -380 q 313 -357 322 -334 q 332 -312 339 -284 q 346 -257 349 -236 q 353 -215 354 -192 q 355 -182 357 -164 q 363 -101 368 -78 q 373 -55 386 -46 q 407 -32 454 -2 q 457 0 461 2 q 485 21 521 57 q 555 92 569 120 l 537 228 q 464 110 407 66 q 391 54 376 46 q 384 123 387 170 q 391 218 402 257 q 413 296 414 323 q 418 408 413 423 q 409 432 406 437 q 398 450 376 450 l 354 450 q 348 450 343 450 q 338 451 334 452 q 331 454 328 454 q 326 455 323 458 q 320 461 319 462 q 317 463 314 467 q 312 471 310 473 q 298 487 273 487 q 217 487 157 434 q 116 397 90 347 q 64 298 39 222 q 11 140 41 79 q 57 45 89 22 q 121 -1 159 -1 q 210 -1 265 51 l 255 -7 q 225 -34 202 -57 q 180 -81 146 -119 q 129 -138 114 -161 q 98 -184 91 -197 q 83 -209 65 -242 q 33 -299 37 -351 q 39 -378 50 -398 q 61 -419 79 -430 q 97 -442 118 -448 q 139 -453 164 -453 z m 151 208 q 156 237 202 318 q 245 394 302 394 l 265 231 q 263 189 246 147 q 224 94 191 94 q 172 94 160 114 q 142 146 151 208 z m 257 -125 q 256 -132 254 -156 q 251 -181 249 -198 q 246 -215 242 -229 q 234 -256 229 -272 q 224 -288 217 -304 q 210 -321 205 -330 q 199 -338 191 -346 q 183 -354 174 -356 q 165 -359 153 -359 q 121 -359 137 -313 q 156 -257 189 -203 q 223 -149 257 -125 z"},"j":{"x_min":0,"x_max":315,"ha":315,"o":"m 0 0 q 0 8 2 28 q 4 47 8 75 q 12 104 17 138 q 22 172 29 208 q 35 244 42 285 q 50 326 58 357 q 65 388 73 412 q 82 436 89 449 q 96 460 105 466 q 115 473 126 476 q 137 479 149 479 q 161 480 172 480 q 189 480 197 470 q 205 459 205 448 q 205 442 202 430 q 199 417 195 402 q 191 388 188 375 q 184 362 182 355 l 154 266 q 182 270 207 272 q 232 273 263 278 q 293 283 331 294 q 369 305 422 328 l 422 234 q 390 217 357 207 q 325 198 298 193 q 268 188 238 188 q 250 156 260 122 q 268 92 275 56 q 281 21 281 -16 q 281 -22 280 -45 q 279 -68 274 -100 q 270 -131 260 -166 q 250 -201 232 -230 q 215 -259 189 -278 q 163 -297 125 -297 q 91 -297 67 -277 q 43 -257 28 -219 q 13 -181 7 -125 q 0 -70 0 0 z m 140 218 q 127 143 118 65 q 109 -12 109 -94 q 109 -121 113 -138 q 116 -156 121 -167 q 126 -178 132 -183 q 137 -188 141 -188 q 157 -188 166 -170 q 176 -152 180 -126 q 185 -101 186 -71 q 188 -41 188 -16 q 188 -1 185 16 q 183 34 180 53 q 177 72 172 92 q 168 111 164 130 q 153 173 140 218 z m 108 616 q 108 627 113 641 q 118 655 129 668 q 140 680 158 689 q 177 697 204 697 q 221 697 236 693 q 251 689 263 681 q 274 673 281 660 q 287 647 287 629 q 287 612 282 597 q 276 581 265 569 q 253 557 235 549 q 217 542 192 542 q 149 542 129 562 q 108 582 108 616 z"},"i":{"x_min":0,"x_max":263,"ha":263,"o":"m 359 104 q 342 88 316 70 q 290 51 259 36 q 229 21 198 10 q 166 0 138 0 q 112 0 95 7 q 78 14 67 27 q 56 40 52 58 q 47 76 47 98 q 47 129 54 170 q 67 249 71 259 q 78 280 99 354 q 115 416 119 434 q 122 446 133 456 q 143 465 156 470 q 169 476 183 479 q 197 481 208 481 q 229 481 236 474 q 243 466 243 454 q 243 443 238 423 q 233 402 226 377 q 219 351 208 315 q 196 279 189 250 q 182 220 177 192 q 172 164 172 142 q 172 120 177 107 q 182 94 197 94 q 214 94 236 106 q 257 118 279 135 q 301 153 322 171 q 343 190 359 203 z m 141 616 q 141 627 146 641 q 151 655 162 668 q 173 680 191 689 q 209 697 237 697 q 254 697 269 693 q 284 689 295 681 q 307 673 313 660 q 320 647 320 629 q 320 612 314 597 q 309 581 297 569 q 286 557 268 549 q 250 542 225 542 q 182 542 162 562 q 141 582 141 616 z"},"y":{"x_min":0,"x_max":474,"ha":474,"o":"m 253 -8 l 264 51 q 238 28 209 13 q 181 -1 154 -1 q 130 -1 108 9 q 86 18 69 36 q 52 54 42 79 q 31 105 31 137 q 31 180 35 215 q 40 251 50 303 q 60 354 72 385 q 83 415 99 445 q 110 467 131 479 q 152 490 172 490 q 189 490 201 482 q 213 473 213 455 q 213 450 212 443 q 211 437 208 430 q 199 407 191 377 q 182 346 173 295 q 164 243 160 212 q 156 182 156 158 q 156 146 158 135 q 160 123 164 114 q 168 105 176 99 q 183 94 194 94 q 212 94 227 109 q 242 125 252 147 q 263 169 270 192 q 276 216 278 231 l 317 414 q 321 430 331 443 q 341 456 354 465 q 367 474 381 479 q 396 483 408 483 q 423 483 434 476 q 444 470 444 456 q 444 451 442 445 q 439 433 435 411 q 431 389 426 361 q 420 333 413 282 q 405 232 400 201 q 388 129 375 46 q 390 54 407 66 q 424 79 445 99 q 466 120 492 151 q 518 182 550 228 l 573 120 q 564 104 551 89 q 536 72 520 57 q 495 34 484 26 q 481 24 449 -2 q 439 -10 384 -47 q 371 -56 366 -79 q 361 -102 355 -165 q 353 -183 353 -193 q 350 -216 347 -237 q 343 -258 336 -285 q 330 -312 320 -335 q 311 -358 296 -380 q 281 -403 262 -419 q 244 -435 218 -444 q 192 -454 162 -454 q 137 -454 115 -448 q 94 -443 77 -431 q 59 -419 48 -399 q 37 -379 35 -352 q 31 -300 63 -242 q 81 -210 88 -198 q 96 -185 111 -162 q 127 -139 144 -120 q 178 -82 200 -58 q 223 -35 253 -8 z m 255 -126 q 221 -150 188 -204 q 154 -258 135 -313 q 119 -360 151 -360 q 163 -360 172 -357 q 181 -354 189 -347 q 197 -339 203 -330 q 208 -321 215 -305 q 222 -289 227 -273 q 232 -257 240 -230 q 244 -216 247 -199 q 250 -182 252 -157 q 254 -133 255 -126 z"},"@":{"x_min":0,"x_max":1094,"ha":1094,"o":"m 726 502 q 714 505 702 507 q 689 509 678 509 q 647 509 617 493 q 587 477 561 450 q 534 424 511 390 q 489 356 472 321 q 456 285 447 250 q 438 215 438 187 q 438 150 453 131 q 469 111 501 111 q 523 111 543 120 q 563 129 580 144 q 597 159 611 177 q 625 196 635 215 q 646 234 652 252 q 659 270 662 282 z m 55 105 q 55 161 66 219 q 78 277 100 334 q 123 391 155 445 q 187 499 227 547 q 267 595 315 635 q 363 675 418 704 q 472 733 532 750 q 592 766 656 766 q 704 766 751 757 q 798 749 841 732 q 884 714 921 687 q 958 660 985 622 q 1013 584 1028 535 q 1044 486 1044 425 q 1044 412 1043 399 q 1043 386 1041 372 q 1037 339 1023 300 q 1010 261 989 223 q 967 185 939 149 q 911 113 876 86 q 842 59 803 43 q 763 26 720 26 q 709 26 698 30 q 688 34 679 43 q 670 53 665 70 q 659 87 659 115 q 659 126 661 140 q 663 153 666 168 q 647 131 624 103 q 601 74 574 55 q 548 35 520 25 q 492 16 464 16 q 432 16 403 26 q 374 37 351 58 q 329 80 316 111 q 303 143 303 185 q 303 227 316 275 q 330 323 354 370 q 379 417 414 459 q 449 502 492 535 q 536 567 587 587 q 638 606 694 606 q 705 606 712 604 q 719 603 722 600 q 726 597 727 594 q 728 591 728 589 q 728 587 727 586 q 727 585 727 584 l 727 582 q 738 577 751 576 q 763 575 775 574 q 787 573 797 571 q 808 568 816 561 q 824 553 828 538 q 833 522 833 497 q 833 478 829 453 q 825 428 818 401 q 812 375 803 347 q 795 319 787 293 q 779 267 773 244 q 766 221 763 204 q 756 182 756 166 q 756 155 760 148 q 763 141 771 141 q 790 141 808 152 q 826 163 843 182 q 859 201 874 227 q 888 252 899 282 q 910 312 916 343 q 922 375 922 406 q 922 479 901 530 q 880 581 844 613 q 808 644 760 658 q 711 672 656 672 q 587 672 526 646 q 465 621 414 578 q 363 536 322 480 q 282 425 253 364 q 225 304 210 242 q 195 181 195 127 q 195 84 210 49 q 226 14 260 -11 q 294 -36 349 -49 q 404 -62 484 -62 q 601 -62 691 -45 q 780 -27 846 3 q 857 8 867 8 q 875 8 881 4 q 887 0 891 -6 q 895 -12 896 -20 q 898 -28 898 -37 q 898 -49 894 -61 q 890 -72 883 -76 q 836 -104 780 -125 q 724 -146 665 -160 q 605 -174 547 -181 q 488 -188 438 -188 q 342 -188 271 -166 q 199 -144 151 -105 q 103 -66 79 -12 q 55 42 55 105 z"},".":{"x_min":0,"x_max":421,"ha":421,"o":"m 328 93 q 328 91 328 83 q 327 76 324 65 q 322 55 316 44 q 311 32 300 22 q 290 13 274 6 q 259 0 236 0 q 218 0 204 5 q 189 9 178 19 q 168 28 162 43 q 156 58 156 79 q 156 97 161 114 q 167 130 177 144 q 188 157 205 165 q 222 172 246 172 q 286 172 307 152 q 328 131 328 93 z"},"p":{"x_min":0,"x_max":421,"ha":421,"o":"m 262 87 q 311 87 352 97 q 392 106 425 123 q 458 140 485 162 q 511 184 533 209 l 538 98 q 522 79 500 61 q 478 43 452 30 q 425 16 396 8 q 367 0 339 0 q 335 0 330 1 q 325 2 312 4 q 300 7 276 11 q 252 15 212 21 l 212 12 q 212 -77 197 -149 q 182 -222 157 -273 q 132 -324 100 -352 q 68 -380 33 -380 q 5 -380 -13 -366 q -32 -353 -43 -329 q -54 -306 -58 -275 q -63 -244 -63 -209 q -63 -189 -57 -164 q -50 -139 -40 -112 q -29 -84 -15 -55 q -2 -27 12 0 q 45 62 88 129 q 93 167 99 207 q 104 247 113 285 q 122 322 139 364 q 157 405 177 430 q 198 455 226 469 q 254 484 294 484 q 324 484 350 476 q 376 468 396 450 q 415 432 426 403 q 438 375 438 333 q 438 287 428 261 q 413 223 390 194 q 367 166 335 141 q 303 117 259 97 z m 200 136 q 229 151 251 169 q 271 187 287 208 q 293 208 317 252 q 333 290 338 310 q 340 321 341 335 q 342 350 338 362 q 334 375 325 384 q 316 393 300 393 q 282 393 269 383 q 255 373 245 356 q 235 339 228 315 q 222 292 213 258 q 204 223 202 194 q 200 165 200 136 z m 30 -215 q 30 -219 32 -228 q 34 -237 38 -246 q 42 -254 48 -261 q 54 -268 63 -268 q 72 -268 77 -259 q 83 -250 86 -235 q 89 -220 91 -201 q 92 -182 93 -162 q 94 -142 94 -123 q 95 -104 96 -88 q 97 -62 98 -44 q 99 -25 99 -13 q 100 0 100 10 q 91 -6 82 -28 q 73 -49 65 -72 q 58 -95 51 -118 q 45 -141 40 -160 q 36 -180 33 -195 q 30 -209 30 -215 z"},"X":{"x_min":0,"x_max":842,"ha":842,"o":"m 462 456 q 458 483 453 513 q 448 542 440 572 q 432 601 421 628 q 410 654 395 675 q 380 695 361 707 q 342 719 317 719 q 314 719 304 710 q 294 701 281 686 q 269 670 254 650 q 240 630 229 607 q 221 593 214 593 q 209 593 205 599 q 200 606 197 616 q 193 626 191 639 q 188 652 186 664 q 185 676 184 686 q 183 696 183 701 q 183 737 192 764 q 202 791 220 809 q 237 826 261 835 q 285 844 312 844 q 337 844 362 840 q 387 836 412 825 q 438 814 461 793 q 485 773 507 740 q 528 707 547 659 q 565 611 579 545 q 603 581 629 616 q 656 652 684 684 q 711 716 739 744 q 766 771 791 792 q 815 812 837 823 q 858 835 875 835 q 890 835 902 824 q 915 813 924 795 q 933 777 938 754 q 943 731 943 708 q 943 661 917 637 q 891 614 850 614 q 845 614 843 619 q 841 625 841 633 q 840 642 841 652 q 841 662 840 670 q 840 678 838 684 q 836 689 832 689 q 822 689 808 679 q 794 669 777 652 q 760 634 740 610 q 720 586 699 559 q 678 531 657 500 q 636 470 615 440 q 631 381 641 332 q 651 282 660 241 q 668 201 676 171 q 684 140 694 119 q 705 99 720 88 q 736 78 759 78 q 789 78 826 107 q 862 136 906 203 q 913 210 922 210 q 931 210 939 205 q 947 200 954 191 q 960 183 965 172 q 969 162 969 151 q 969 136 958 125 q 926 87 893 58 q 860 28 829 9 q 797 -11 769 -21 q 740 -31 716 -31 q 689 -31 667 -26 q 645 -20 627 -6 q 609 9 594 34 q 578 60 564 100 q 549 140 535 196 q 521 252 505 328 q 452 249 406 180 q 387 150 367 121 q 347 91 329 64 q 311 38 297 17 q 283 -3 274 -15 q 263 -31 241 -41 q 219 -51 195 -51 q 162 -51 145 -38 q 128 -24 128 -2 q 128 23 151 53 q 162 66 181 90 q 200 114 224 144 q 248 173 276 207 q 303 241 331 274 q 358 308 383 338 q 407 368 426 391 q 445 415 456 428 q 467 441 467 441 z"},"*":{"x_min":0,"x_max":526,"ha":526,"o":"m 336 834 q 331 819 325 801 q 318 782 312 764 q 305 746 298 728 q 292 711 286 698 q 302 706 323 718 q 343 729 362 740 q 385 752 408 765 q 412 768 417 769 q 421 770 426 770 q 437 770 448 764 q 458 759 467 750 q 475 741 480 730 q 485 720 485 709 q 485 697 477 687 q 468 677 448 671 q 434 668 416 665 q 398 662 381 658 q 363 655 345 652 q 328 649 313 647 q 327 642 343 634 q 359 627 375 619 q 392 611 408 604 q 424 596 438 590 q 452 582 458 572 q 464 563 464 553 q 464 543 459 533 q 453 523 444 516 q 435 508 424 504 q 413 499 402 499 q 385 499 374 510 q 353 529 333 548 q 317 563 299 580 q 282 597 270 609 q 270 592 269 568 q 269 544 269 521 q 268 495 268 467 q 268 457 262 448 q 257 440 248 434 q 239 428 229 425 q 218 422 207 422 q 198 422 190 424 q 182 426 176 431 q 169 436 166 443 q 162 450 162 460 q 162 464 162 469 q 163 474 164 479 q 169 494 176 511 q 182 529 189 547 q 195 565 202 583 q 208 600 214 613 q 198 604 177 593 q 157 582 138 571 q 116 559 93 547 q 85 542 75 542 q 63 542 53 548 q 42 553 34 562 q 26 571 21 582 q 16 592 16 603 q 16 616 24 625 q 32 635 52 641 q 67 644 84 647 q 101 650 119 653 q 137 656 154 659 q 171 662 186 664 q 173 670 157 677 q 141 685 124 692 q 108 700 92 707 q 76 715 62 721 q 36 736 36 757 q 36 768 42 777 q 47 787 56 795 q 65 803 77 807 q 88 812 99 812 q 116 812 127 801 q 147 782 167 763 q 184 748 201 730 q 219 713 231 702 q 231 719 231 743 q 232 767 232 790 q 233 817 233 845 q 233 856 239 865 q 244 873 252 879 q 261 885 271 888 q 282 891 293 891 q 311 891 325 881 q 339 872 339 852 q 339 848 338 844 q 337 839 336 834 z"},"Y":{"x_min":0,"x_max":737,"ha":737,"o":"m 550 247 q 548 242 453 120 q 420 80 394 50 q 367 21 345 2 q 323 -18 302 -29 q 282 -40 262 -44 q 243 -48 221 -48 q 202 -48 182 -40 q 162 -31 145 -19 q 128 -7 117 4 q 105 16 104 21 q 101 25 98 33 q 96 40 96 48 q 96 55 99 61 q 103 66 111 66 q 114 66 118 65 q 133 55 148 51 q 163 46 175 46 q 212 46 241 59 q 271 72 294 93 q 317 113 336 139 q 354 166 382 208 q 409 250 420 274 q 432 298 441 315 q 424 358 406 400 q 388 443 369 482 q 349 521 329 554 q 309 587 287 612 q 266 636 244 650 q 222 664 200 664 q 188 664 181 661 q 174 658 170 653 q 167 648 165 642 q 164 636 164 629 q 164 622 165 615 q 166 607 166 602 q 166 594 161 592 q 157 590 152 590 q 142 590 134 602 q 126 613 121 633 q 116 652 113 677 q 110 703 110 729 q 110 738 114 747 q 119 755 128 763 q 138 770 152 775 q 167 779 187 779 q 243 779 289 751 q 335 723 375 675 q 414 626 448 561 q 482 496 515 422 q 543 474 570 525 q 597 575 619 619 q 642 663 659 698 q 677 734 689 756 q 695 768 712 775 q 729 782 749 782 q 759 782 769 779 q 778 776 786 770 q 793 764 798 753 q 803 743 803 728 q 803 708 791 678 q 779 652 759 611 q 739 570 711 519 q 684 468 650 411 q 616 354 579 295 z"},"c":{"x_min":0,"x_max":368,"ha":368,"o":"m 213 0 q 168 0 135 17 q 101 33 78 61 q 55 89 43 125 q 31 162 31 202 q 31 230 41 270 q 51 309 62 339 q 74 368 91 395 q 107 422 130 442 q 152 462 179 474 q 207 486 239 486 q 267 486 291 478 q 314 469 331 454 q 348 439 358 418 q 367 397 367 374 q 367 357 363 341 q 358 325 346 303 q 333 281 321 273 q 309 266 294 266 q 271 266 264 278 q 252 297 257 312 q 258 319 266 348 q 267 352 266 365 q 266 377 264 385 q 261 393 253 393 q 233 393 219 383 q 205 374 195 358 q 185 343 175 315 q 165 287 161 268 q 157 249 156 231 q 155 214 155 202 q 155 185 158 166 q 161 146 171 131 q 180 115 195 104 q 210 94 234 94 q 258 94 286 108 q 314 123 343 145 q 372 167 397 193 q 423 219 442 243 l 476 186 q 439 134 396 93 q 378 75 357 59 q 336 42 313 29 q 290 16 264 8 q 239 0 213 0 z"},"!":{"x_min":0,"x_max":578,"ha":578,"o":"m 188 250 q 193 300 203 354 q 213 407 226 461 q 238 514 253 566 q 267 619 281 667 q 295 714 308 756 q 321 798 331 832 q 337 855 349 870 q 361 884 376 892 q 391 900 407 903 q 423 906 438 906 q 446 906 453 904 q 460 902 465 897 q 470 892 472 883 q 475 874 475 860 q 475 850 474 839 q 473 827 470 812 q 458 755 438 698 q 418 641 391 575 q 364 509 329 430 q 294 351 251 250 q 250 245 246 240 q 242 235 236 232 q 230 229 223 227 q 216 226 210 226 q 201 226 194 229 q 188 233 188 243 q 188 245 188 250 z m 273 90 q 272 88 272 81 q 271 74 268 63 q 266 53 261 42 q 256 31 246 21 q 237 12 222 5 q 208 -1 186 -1 q 167 -1 153 4 q 138 8 128 18 q 117 28 111 43 q 105 58 105 79 q 105 97 111 114 q 116 130 126 144 q 137 157 154 165 q 171 172 195 172 q 233 172 253 152 q 274 131 274 93 q 274 91 273 90 z"},"/":{"x_min":0,"x_max":631,"ha":631,"o":"m 453 828 q 459 842 471 856 q 482 870 499 881 q 515 892 535 899 q 555 906 578 906 q 590 906 596 902 q 603 897 605 890 q 608 883 609 875 q 609 867 609 859 q 609 855 607 847 q 604 838 600 829 q 596 819 591 809 q 587 799 584 792 q 558 735 525 655 q 493 575 452 477 q 411 378 361 266 q 311 153 251 31 q 241 15 231 6 q 220 -3 209 -8 q 198 -13 188 -15 q 177 -16 167 -16 q 156 -16 146 -15 q 136 -14 127 -10 q 119 -6 114 3 q 108 11 108 27 q 108 40 113 57 q 118 74 127 96 q 134 111 149 144 q 163 177 183 221 q 203 265 226 318 q 250 372 275 428 q 300 485 325 542 q 351 600 375 653 q 398 706 418 751 q 438 796 453 828 z"},"[":{"x_min":0,"x_max":453,"ha":453,"o":"m 191 692 q 194 704 198 717 q 202 730 208 744 q 214 758 223 771 q 232 784 247 793 q 261 803 281 809 q 301 815 328 815 l 483 815 q 496 815 505 810 q 514 805 520 797 q 525 790 528 781 q 531 771 531 764 q 531 753 525 742 q 519 732 510 724 q 500 716 489 711 q 478 706 468 706 l 328 706 q 328 705 325 685 q 322 665 317 632 q 312 598 306 554 q 299 509 292 459 q 284 409 276 356 q 269 304 261 255 q 253 206 247 161 q 240 116 235 83 q 230 51 227 32 q 224 13 224 14 l 364 14 q 372 14 379 10 q 387 7 392 2 q 397 -4 401 -11 q 404 -19 404 -27 q 404 -34 399 -46 q 393 -58 383 -69 q 373 -80 358 -88 q 344 -96 328 -96 l 172 -96 q 146 -96 129 -90 q 112 -84 103 -75 q 93 -65 90 -53 q 86 -41 86 -28 q 86 -14 89 1 q 91 15 94 27 q 103 72 111 124 q 120 176 129 231 q 137 287 146 343 q 144 343 160 449 q 182 589 191 692 z"},"6":{"x_min":0,"x_max":453,"ha":453,"o":"m 305 211 q 305 243 294 260 q 284 276 267 276 q 255 276 247 270 q 238 264 232 255 q 227 246 222 235 q 218 225 213 216 q 209 207 204 200 q 199 194 192 194 q 190 194 187 206 q 184 217 184 234 q 184 261 195 283 q 206 304 223 319 q 241 334 263 342 q 286 350 309 350 q 332 350 353 342 q 374 334 390 318 q 407 302 417 276 q 427 251 427 216 q 427 177 412 138 q 396 100 368 69 q 340 38 299 19 q 259 0 208 0 q 172 0 138 10 q 104 21 77 44 q 50 68 33 105 q 17 142 17 195 q 17 256 40 313 q 63 371 104 422 q 144 472 198 514 q 252 556 313 584 q 323 589 332 592 q 340 594 349 594 q 371 594 383 583 q 395 572 395 557 q 395 545 388 534 q 382 522 366 511 q 323 485 281 448 q 240 412 208 368 q 176 324 157 275 q 137 226 137 176 q 137 157 141 140 q 145 123 153 110 q 162 97 175 89 q 189 82 209 82 q 230 82 248 94 q 266 105 279 124 q 291 143 298 166 q 305 189 305 211 z"},"r":{"x_min":0,"x_max":421,"ha":421,"o":"m 62 102 q 62 124 65 152 q 67 181 72 212 q 76 244 81 277 q 87 310 96 347 q 104 385 111 410 q 117 435 124 451 q 127 461 131 468 q 135 474 140 478 q 146 481 153 483 q 161 484 172 484 q 185 484 192 483 q 199 481 202 477 q 206 472 206 463 q 207 455 207 439 q 207 421 205 388 q 202 355 203 330 l 208 330 q 218 350 233 381 q 248 413 264 434 q 280 455 300 469 q 321 484 348 484 q 357 484 366 481 q 375 478 381 472 q 388 466 392 457 q 396 449 396 438 q 396 430 393 415 q 391 400 385 376 q 380 352 377 337 q 375 321 375 311 q 375 293 378 282 q 382 270 387 263 q 393 256 400 253 q 407 250 415 250 q 437 250 460 260 q 484 270 503 282 q 526 296 548 314 l 541 200 q 528 191 512 181 q 496 171 478 162 q 459 153 440 147 q 420 141 399 141 q 363 141 340 156 q 318 170 305 195 q 292 219 285 249 q 279 279 275 310 l 267 310 l 180 66 q 173 47 167 34 q 161 22 154 14 q 148 6 141 3 q 133 0 125 0 q 104 0 92 9 q 80 17 73 31 q 67 46 65 64 q 62 83 62 102 z"},"2":{"x_min":0,"x_max":474,"ha":474,"o":"m 368 0 q 354 0 339 5 q 325 9 310 16 q 296 23 281 32 q 267 41 253 51 q 225 30 193 16 q 161 3 125 0 q 100 0 78 10 q 56 19 40 33 q 23 48 14 68 q 5 87 5 108 q 5 124 10 141 q 16 158 27 172 q 39 186 56 194 q 74 203 100 203 q 138 203 168 192 q 197 181 222 165 q 237 183 250 203 q 263 223 272 245 q 282 266 288 288 q 293 310 293 331 q 293 366 287 389 q 280 412 269 424 q 258 437 245 442 q 231 446 219 446 q 203 446 189 441 q 175 436 164 426 q 153 417 147 403 q 141 390 141 374 q 141 365 155 356 q 168 347 199 337 q 200 334 200 332 q 200 326 189 320 q 178 313 161 307 q 144 302 124 298 q 104 294 86 294 q 83 298 79 299 q 75 299 72 299 q 52 316 42 335 q 33 354 33 375 q 33 402 49 434 q 64 466 91 488 q 117 509 153 522 q 189 536 229 536 q 240 536 258 533 q 276 531 297 524 q 317 518 339 506 q 360 494 377 474 q 395 455 406 421 q 417 388 417 350 q 417 328 409 299 q 402 270 389 238 q 375 205 356 171 q 336 138 311 108 q 328 100 345 94 q 363 89 385 89 q 390 89 397 97 q 403 104 409 114 q 415 123 420 131 q 425 138 428 138 q 435 138 439 133 q 443 127 443 114 q 443 93 435 62 q 433 52 428 41 q 424 30 416 21 q 408 12 396 6 q 384 0 368 0 z m 119 93 q 140 93 168 114 q 157 121 146 125 q 136 130 127 130 q 105 130 96 126 q 87 122 87 116 q 87 112 90 108 q 93 104 97 101 q 102 97 107 95 q 113 93 119 93 z"},"{":{"x_min":0,"x_max":579,"ha":579,"o":"m 238 676 q 245 723 263 763 q 280 802 305 831 q 331 859 362 875 q 393 891 428 891 q 446 891 471 889 q 496 888 522 883 q 549 878 576 869 q 603 860 624 844 q 631 838 634 831 q 637 823 637 815 q 637 804 633 792 q 628 781 620 771 q 612 762 601 756 q 590 750 578 750 q 566 750 550 752 q 533 755 514 758 q 496 761 476 763 q 457 766 439 766 q 424 766 411 760 q 398 753 388 737 q 378 720 369 690 q 360 661 353 613 q 347 577 341 540 q 334 504 322 472 q 310 441 290 417 q 271 393 238 381 q 258 376 271 365 q 284 354 292 338 q 300 322 303 302 q 306 283 306 261 q 306 233 302 202 q 299 171 295 141 q 291 111 287 85 q 283 59 283 42 q 283 21 286 8 q 290 -5 295 -13 q 301 -21 310 -24 q 318 -27 330 -27 q 347 -27 363 -22 q 378 -16 393 -9 q 408 -2 423 3 q 437 9 452 9 q 460 9 469 6 q 477 3 483 -3 q 490 -10 494 -20 q 498 -29 498 -42 q 498 -50 496 -59 q 494 -75 479 -89 q 465 -102 444 -113 q 423 -123 398 -130 q 373 -138 350 -143 q 326 -147 307 -150 q 288 -152 278 -152 q 249 -152 225 -141 q 202 -129 186 -107 q 169 -85 161 -55 q 152 -25 152 11 q 152 52 160 96 q 168 141 176 184 q 177 191 177 198 q 178 206 178 214 q 178 232 175 249 q 171 266 162 279 q 153 292 139 300 q 124 309 102 309 q 82 309 73 323 q 64 338 64 359 q 64 374 69 390 q 73 406 81 419 q 89 432 100 440 q 111 449 124 449 q 155 450 175 458 q 195 466 207 481 q 219 497 226 520 q 233 543 238 574 z"},"9":{"x_min":0,"x_max":453,"ha":453,"o":"m 227 250 q 236 260 240 260 q 244 260 244 257 q 245 254 245 250 q 245 234 238 217 q 230 199 218 185 q 206 170 188 160 q 171 151 150 151 q 118 151 94 165 q 71 179 56 201 q 41 224 33 252 q 26 280 26 308 q 26 333 32 359 q 39 386 51 411 q 63 436 81 458 q 99 479 123 496 q 147 512 176 522 q 206 531 240 531 q 270 531 302 520 q 335 509 362 485 q 389 460 406 423 q 423 385 423 332 q 423 253 401 190 q 378 126 339 76 q 299 26 247 -11 q 194 -48 135 -75 q 125 -79 116 -82 q 107 -85 99 -85 q 77 -85 65 -75 q 53 -66 53 -52 q 53 -41 60 -29 q 66 -17 82 -7 q 131 18 171 49 q 211 79 240 118 q 269 158 285 207 q 300 255 300 316 q 300 340 297 362 q 294 384 286 401 q 278 418 265 428 q 252 438 233 438 q 213 438 196 426 q 180 413 168 394 q 156 375 149 351 q 143 327 143 304 q 143 286 147 272 q 151 259 159 249 q 166 240 175 235 q 185 230 194 230 q 203 230 211 235 q 220 240 227 250 z"}," ":{"x_min":0,"x_max":266,"ha":266,"o":""},"I":{"x_min":0,"x_max":421,"ha":421,"o":"m 151 686 q 151 686 149 685 q 147 685 146 702 q 145 719 145 749 q 145 754 150 764 q 156 773 168 784 q 181 795 202 806 q 223 816 254 825 q 286 834 328 839 q 371 845 427 845 q 476 845 503 840 q 530 835 543 828 q 557 820 560 810 q 563 800 563 790 q 563 779 561 769 q 559 759 548 751 q 538 743 518 738 q 497 733 461 733 q 445 733 429 734 q 416 681 405 639 q 395 597 387 562 q 378 526 372 495 q 365 464 358 432 q 351 400 343 366 q 335 331 325 289 q 315 247 302 195 q 288 143 271 77 q 273 77 284 76 q 294 75 308 72 q 322 70 337 66 q 353 62 365 56 q 378 50 386 42 q 395 35 395 24 q 395 4 359 -16 q 349 -16 326 -16 q 304 -16 273 -16 q 242 -16 207 -16 q 171 -16 135 -16 q 100 -16 66 -16 q 33 -16 7 -15 q -18 -15 -33 -15 q -49 -14 -49 -13 q -49 -12 -44 -9 q -40 -5 -34 0 q -28 6 -22 14 q -17 22 -16 35 q -15 43 1 51 q 17 58 39 64 q 61 70 85 74 q 110 78 129 80 q 144 144 159 208 q 175 271 190 333 q 205 394 219 451 q 233 509 247 559 q 261 609 273 651 q 286 693 297 725 q 279 723 266 721 q 252 719 241 716 q 230 714 221 711 q 211 708 201 704 q 191 701 179 696 q 167 691 151 686 z"},"H":{"x_min":0,"x_max":1052,"ha":1052,"o":"m 878 366 q 870 342 850 239 q 839 188 839 149 q 839 116 853 97 q 867 79 899 79 q 912 79 929 86 q 946 93 968 108 q 990 123 1017 147 q 1044 171 1077 204 q 1079 201 1083 190 q 1087 181 1094 162 q 1101 144 1114 111 q 1077 72 1040 43 q 1003 14 969 -6 q 934 -26 902 -36 q 870 -46 843 -46 q 812 -46 786 -34 q 759 -23 740 -1 q 721 21 709 53 q 698 85 698 126 q 698 140 701 162 q 704 183 710 210 q 715 238 724 278 q 732 317 742 354 q 677 347 617 341 q 557 335 497 330 q 483 289 470 247 q 457 205 444 171 q 432 136 421 108 q 411 79 403 59 q 370 -11 355 -24 q 333 -45 314 -45 q 303 -45 292 -42 q 280 -38 271 -30 q 263 -23 258 -13 q 252 -2 252 10 q 252 18 254 25 q 272 106 301 180 q 329 253 350 320 q 323 320 298 324 q 273 328 252 338 q 231 349 215 367 q 199 385 188 413 q 186 421 185 428 q 184 435 184 442 q 184 463 199 463 q 208 463 219 453 q 230 443 248 421 q 271 422 294 423 q 317 423 343 423 l 390 423 q 408 469 424 511 q 444 565 453 594 q 461 620 466 646 q 471 671 471 695 q 471 714 468 730 q 464 746 457 757 q 449 769 437 775 q 424 781 406 781 q 392 781 372 776 q 353 771 330 760 q 306 750 279 732 q 251 714 219 688 q 208 678 198 674 q 188 670 181 670 q 177 670 175 683 q 173 696 173 715 q 173 741 185 764 q 197 787 217 806 q 237 825 263 841 q 289 857 317 868 q 344 879 372 885 q 399 891 422 891 q 456 891 487 881 q 519 872 542 852 q 566 831 580 798 q 594 766 594 719 q 594 697 589 665 q 583 633 575 595 q 566 558 554 515 q 542 472 528 428 q 579 431 642 435 q 705 438 768 441 q 793 523 823 610 q 853 697 887 781 q 898 809 916 826 q 935 842 959 842 q 970 842 979 839 q 989 836 996 830 q 1003 824 1008 815 q 1012 805 1012 792 q 1012 781 1010 766 q 1009 751 1002 734 q 991 704 979 670 q 966 635 953 599 q 940 562 927 524 q 914 486 902 449 q 933 451 956 452 q 979 454 991 455 q 996 456 1001 456 q 1005 456 1009 456 q 1024 456 1033 453 q 1042 450 1047 445 q 1052 439 1054 432 q 1056 425 1056 416 q 1056 405 1052 398 q 1047 392 1041 387 q 1034 383 1027 382 q 1020 380 1013 379 q 1000 378 994 377 q 988 376 985 376 q 983 376 982 376 q 981 375 979 375 q 976 375 968 375 q 961 374 946 373 q 928 371 911 369 q 895 368 878 366 z"},"4":{"x_min":0,"x_max":453,"ha":453,"o":"m 376 -19 q 355 -19 333 -20 q 312 -22 292 -22 q 276 -22 264 -20 q 252 -18 244 -11 q 236 -5 232 6 q 228 17 228 35 q 228 54 232 80 q 237 105 245 133 q 214 133 189 127 q 164 121 141 114 q 119 106 98 100 q 78 94 59 94 q 50 94 46 100 q 42 106 42 116 q 42 128 50 146 q 58 163 70 182 q 81 208 89 232 q 98 255 104 277 q 111 298 117 320 q 123 342 131 374 q 139 406 145 435 q 151 463 158 499 q 161 507 170 512 q 179 518 191 521 q 204 525 219 527 q 234 528 249 528 q 261 528 272 527 q 283 526 291 524 q 299 522 304 519 q 309 516 309 512 q 303 475 293 438 q 283 400 267 355 q 251 311 235 272 q 219 233 201 192 q 219 191 232 191 q 243 191 255 191 l 261 191 q 271 223 281 253 q 291 283 299 309 q 302 322 310 331 q 318 340 328 345 q 338 351 349 354 q 360 356 369 356 q 392 356 400 349 q 408 342 408 329 q 408 321 405 308 q 402 295 396 278 q 391 262 384 242 q 377 223 371 202 q 395 206 415 210 q 434 213 448 213 q 454 213 457 208 q 459 203 459 194 q 459 173 456 160 q 452 147 447 140 q 442 133 438 131 q 433 129 430 129 q 412 129 391 130 q 371 130 349 131 q 345 116 342 101 q 339 86 338 73 l 338 63 q 338 55 345 43 q 353 32 361 21 q 369 10 376 1 q 383 -8 383 -14 q 383 -16 382 -17 q 381 -19 376 -19 z"},"~":{"x_min":0,"x_max":422,"ha":422,"o":"m 347 716 q 353 723 358 731 q 364 738 370 747 q 376 755 382 765 q 392 781 406 788 q 421 796 435 796 q 452 796 464 787 q 476 777 476 760 q 476 748 469 734 q 463 723 454 706 q 444 688 430 672 q 417 656 398 644 q 379 632 355 632 q 340 632 329 637 q 317 641 306 650 q 294 659 281 672 q 268 686 250 703 l 200 752 q 194 745 188 737 q 183 730 177 722 q 170 713 165 704 q 155 688 140 680 q 126 673 112 673 q 95 673 83 682 q 71 691 71 708 q 71 721 78 734 q 84 746 93 763 q 103 780 116 797 q 130 813 149 825 q 167 836 191 836 q 207 836 218 832 q 229 828 241 819 q 253 810 266 797 q 279 783 297 766 z"},"D":{"x_min":0,"x_max":684,"ha":684,"o":"m 268 848 q 348 848 410 834 q 472 821 518 798 q 565 774 597 742 q 629 709 649 671 q 669 633 678 590 q 688 547 688 502 q 688 440 674 369 q 660 297 634 238 q 608 179 571 127 q 533 75 484 37 q 435 -2 376 -24 q 318 -46 250 -46 q 227 -46 203 -43 q 179 -40 157 -34 q 134 -28 114 -21 q 94 -13 79 -5 q 73 -3 69 -1 q 65 2 63 6 q 62 9 61 15 q 61 20 61 28 q 61 109 65 194 q 69 279 82 369 q 94 458 118 527 q 142 596 182 654 q 191 668 245 668 q 286 668 304 638 q 282 607 267 570 q 251 533 241 497 q 231 461 224 419 q 211 337 211 336 q 213 335 200 242 q 195 210 193 186 q 190 162 189 144 q 188 126 188 109 q 188 91 189 79 q 190 66 195 59 q 199 52 209 49 q 218 45 234 45 q 283 45 327 65 q 371 84 408 116 q 445 149 475 192 q 504 235 525 291 q 546 348 557 397 q 568 447 568 493 q 568 549 550 594 q 531 639 498 670 q 464 701 417 717 q 371 733 314 733 q 273 733 233 729 q 193 724 158 713 q 124 703 98 687 q 72 671 59 649 q 23 594 0 564 q -23 534 -39 534 q -60 534 -60 583 q -60 631 -48 669 q -35 708 -13 737 q 9 767 40 787 q 70 808 107 822 q 143 835 184 841 q 225 848 268 848 z"},"^":{"x_min":0,"x_max":532,"ha":532,"o":"m 495 332 q 500 317 500 304 q 500 291 495 280 q 491 270 484 263 q 478 255 470 252 q 462 248 456 248 q 441 248 429 256 q 417 263 407 273 q 397 284 391 295 q 385 306 383 313 l 282 549 l 155 294 q 142 270 125 260 q 109 250 95 250 q 84 250 75 254 q 66 258 60 265 q 53 272 49 282 q 45 292 45 303 q 45 310 47 317 q 48 325 52 333 q 53 333 58 344 q 63 354 72 370 q 81 386 91 406 q 102 427 113 448 q 124 469 135 489 q 146 510 154 526 q 162 542 168 552 q 173 563 174 564 q 196 613 223 635 q 251 656 277 656 q 291 656 304 654 q 318 651 332 643 q 345 634 358 619 q 372 604 383 581 q 411 527 439 464 q 468 402 495 332 z"},"0":{"x_min":0,"x_max":474,"ha":474,"o":"m 202 0 q 165 0 136 16 q 108 33 90 60 q 71 88 62 124 q 53 161 53 201 q 53 237 59 274 q 66 312 79 346 q 91 381 110 412 q 129 443 153 467 q 178 490 208 503 q 238 517 273 517 q 313 517 343 501 q 373 486 388 459 q 404 433 413 398 q 422 363 422 324 q 422 288 415 250 q 408 212 398 176 q 387 140 367 108 q 348 76 323 52 q 297 28 267 14 q 237 0 202 0 z m 210 89 q 223 89 236 101 q 249 113 260 133 q 271 153 281 179 q 290 205 297 232 q 304 260 308 287 q 312 314 312 337 q 312 356 309 373 q 307 390 302 402 q 297 414 289 421 q 282 428 271 428 q 256 428 243 416 q 230 404 219 385 q 208 365 200 340 q 191 314 185 287 q 179 260 176 234 q 173 207 173 185 q 173 164 175 147 q 177 129 182 116 q 187 104 194 96 q 201 89 210 89 z"},"F":{"x_min":0,"x_max":684,"ha":684,"o":"m 319 592 q 319 591 319 585 q 318 579 313 572 q 309 565 298 560 q 287 555 266 555 q 237 555 221 558 q 206 561 198 567 q 190 572 189 579 q 187 586 187 594 q 187 667 224 719 q 260 771 326 804 q 393 837 485 853 q 578 868 689 868 q 764 868 845 863 q 926 858 1013 846 q 1038 839 1047 827 q 1057 814 1057 800 q 1057 791 1054 780 q 1051 770 1046 761 q 1041 752 1031 747 q 1022 741 1010 741 q 1008 741 1006 741 q 1004 742 1001 742 q 970 748 933 752 q 896 756 855 759 q 814 761 771 762 q 728 764 684 764 q 670 764 652 762 q 634 761 617 759 q 597 757 576 754 q 576 749 575 742 q 574 735 572 723 q 570 710 568 691 q 565 672 561 642 q 557 612 552 570 q 547 527 542 469 l 812 469 q 824 469 831 464 q 837 459 840 452 q 843 445 843 437 q 844 429 844 422 q 844 398 833 387 q 823 375 812 375 q 809 375 790 374 q 771 374 744 373 q 716 372 684 370 q 651 369 620 368 q 590 367 565 366 q 540 366 527 366 q 518 307 507 252 q 496 197 479 150 q 462 102 439 63 q 416 24 384 -4 q 353 -32 311 -47 q 270 -62 216 -62 q 205 -62 189 -61 q 173 -60 156 -56 q 139 -53 122 -47 q 105 -42 92 -33 q 79 -25 71 -14 q 62 -3 62 11 q 62 19 66 31 q 69 42 75 54 q 82 65 92 73 q 102 82 116 82 q 132 82 150 76 q 168 71 187 64 q 206 58 226 52 q 246 47 267 47 q 283 47 298 60 q 313 73 326 95 q 340 118 352 149 q 364 179 375 215 q 386 250 395 289 q 404 327 412 366 l 352 366 q 344 366 332 368 q 319 370 308 374 q 297 379 289 387 q 281 395 281 406 q 281 415 286 422 q 290 429 300 433 q 328 438 348 443 q 369 447 385 450 q 400 454 413 456 q 425 458 435 460 q 447 512 454 551 q 460 589 465 621 q 470 652 475 680 q 479 708 485 739 q 442 727 411 710 q 380 693 359 673 q 339 654 329 633 q 319 612 319 592 z"},"`":{"x_min":0,"x_max":297,"ha":297,"o":"m 242 587 q 245 581 246 575 q 247 569 247 564 q 247 549 239 540 q 230 531 219 531 q 210 531 202 535 q 193 540 186 549 q 179 557 169 569 q 160 581 147 596 q 135 611 122 627 q 108 644 95 661 q 83 678 71 693 q 59 708 49 721 q 31 747 31 769 q 31 783 38 795 q 44 808 54 816 q 64 825 77 830 q 89 835 102 835 q 116 835 129 828 q 142 820 148 804 q 171 753 190 709 q 198 690 206 671 q 214 652 221 636 q 229 620 234 607 q 239 594 242 587 z"},"k":{"x_min":0,"x_max":474,"ha":474,"o":"m 219 273 q 237 295 258 322 q 279 349 299 374 q 319 398 340 424 q 360 451 370 458 q 385 468 407 476 q 429 483 456 483 q 470 483 482 477 q 495 471 504 459 q 513 447 519 431 q 524 414 524 394 q 524 374 510 346 q 497 318 482 298 q 468 277 451 257 q 434 236 419 216 q 404 195 395 174 q 385 154 385 133 q 385 116 393 108 q 402 101 420 101 q 430 101 441 107 q 453 114 465 125 q 477 135 490 148 q 502 162 513 175 q 525 189 535 201 q 545 214 554 223 l 583 103 q 568 81 545 62 q 521 43 494 30 q 467 16 438 8 q 409 0 382 0 q 347 0 325 9 q 303 17 290 31 q 277 45 273 63 q 268 81 268 100 q 268 111 271 128 q 273 144 281 165 q 289 185 302 210 q 316 234 338 263 q 347 271 354 279 q 361 286 367 291 q 372 297 375 302 q 378 307 378 312 q 378 322 374 329 q 371 335 364 335 q 355 335 342 324 q 329 313 313 287 l 170 35 q 158 16 146 8 q 135 0 119 0 q 98 0 86 9 q 74 18 67 33 q 61 49 59 69 q 58 89 58 112 q 58 140 60 186 q 62 232 65 287 q 69 342 76 402 q 83 462 92 519 q 95 539 101 567 q 106 596 114 628 q 122 661 133 697 q 144 732 158 765 q 173 799 191 829 q 209 859 231 882 q 254 905 281 918 q 308 931 339 931 q 364 931 380 923 q 396 915 406 901 q 416 886 419 866 q 423 846 423 823 q 423 781 413 733 q 402 686 386 637 q 370 589 351 544 q 332 499 314 462 q 297 425 283 400 q 270 375 266 367 l 208 280 z m 315 821 q 299 821 288 812 q 277 802 267 784 q 257 766 247 740 q 237 714 224 682 q 216 654 210 625 q 203 595 198 565 q 192 536 188 507 q 184 478 181 453 q 174 393 169 334 q 180 367 193 405 q 206 442 218 479 q 230 516 241 549 q 252 582 260 605 q 263 616 270 632 q 276 648 283 667 q 291 685 298 705 q 305 725 311 744 q 317 762 321 778 q 325 794 325 806 q 325 821 315 821 z"},"u":{"x_min":0,"x_max":474,"ha":474,"o":"m 433 455 q 433 442 430 419 q 427 396 423 369 q 418 342 410 304 q 402 267 397 242 q 393 217 390 198 q 387 179 387 172 q 387 158 387 147 q 388 135 390 127 q 393 118 398 114 q 403 109 413 109 q 423 109 439 114 q 454 120 471 129 q 489 138 507 149 q 525 161 541 173 q 558 186 571 198 q 584 211 593 222 q 593 206 593 192 q 593 179 593 167 q 593 155 594 143 q 594 130 594 114 q 583 104 567 91 q 551 79 532 67 q 513 55 491 43 q 469 32 447 24 q 425 15 404 10 q 382 5 364 5 q 345 5 332 12 q 319 20 309 33 q 300 46 293 64 q 287 83 282 105 q 264 82 245 63 q 225 43 205 29 q 185 15 164 7 q 143 -1 124 -1 q 107 -1 93 4 q 79 10 68 22 q 57 35 51 56 q 44 77 44 107 q 45 171 54 206 q 68 255 81 354 q 82 361 85 374 q 87 386 92 401 q 97 416 104 431 q 110 446 120 458 q 129 470 141 478 q 154 486 169 486 q 195 485 207 480 q 218 474 218 466 q 213 440 208 408 q 203 376 198 344 q 192 312 185 272 q 177 233 173 209 q 169 185 167 170 q 165 156 165 155 q 165 146 167 138 q 168 130 172 124 q 175 118 181 114 q 186 110 193 110 q 204 110 215 115 q 227 121 236 132 q 247 142 254 157 q 262 172 266 192 l 320 458 q 322 470 340 478 q 357 486 379 486 q 404 486 418 478 q 433 469 433 455 z"},"]":{"x_min":0,"x_max":453,"ha":453,"o":"m 340 28 q 337 17 333 3 q 330 -10 323 -24 q 317 -38 308 -51 q 299 -63 285 -73 q 271 -83 250 -89 q 230 -95 203 -95 l 83 -95 q 70 -95 61 -90 q 51 -84 44 -76 q 38 -67 34 -58 q 31 -48 31 -41 q 31 -30 36 -21 q 42 -11 50 -3 q 59 5 69 10 q 79 14 89 14 l 203 14 q 203 15 206 35 q 209 55 214 89 q 219 122 225 167 q 232 211 240 260 q 247 310 255 363 q 263 416 270 460 q 278 503 284 563 q 291 623 296 656 q 301 688 304 707 q 307 726 307 726 l 180 726 q 171 726 162 730 q 153 734 146 741 q 138 748 134 762 q 129 776 129 786 q 129 793 133 804 q 137 814 145 824 q 153 833 164 840 q 176 846 190 846 l 359 846 q 385 846 402 841 q 419 835 428 825 q 438 816 442 804 q 445 792 445 778 q 445 764 443 750 q 440 735 438 723 q 429 679 420 611 q 411 542 402 488 q 394 433 386 377 q 378 321 371 270 q 355 150 340 28 z"},"U":{"x_min":0,"x_max":684,"ha":684,"o":"m 609 766 q 611 791 619 806 q 626 821 638 829 q 650 838 665 841 q 680 844 695 844 q 708 844 718 841 q 729 838 736 830 q 743 823 746 810 q 750 797 750 778 q 750 643 734 526 q 718 410 688 315 q 659 220 618 147 q 577 73 528 23 q 478 -26 421 -52 q 364 -78 303 -78 q 229 -78 180 -49 q 131 -19 101 31 q 72 82 59 148 q 47 214 47 287 q 47 345 54 405 q 62 464 74 521 q 85 577 100 628 q 115 678 130 719 q 139 747 149 763 q 158 778 167 786 q 177 793 186 795 q 195 797 205 797 q 224 797 238 795 q 252 793 262 789 q 272 784 277 775 q 282 766 282 750 l 282 747 q 281 741 280 734 q 280 727 277 719 q 271 701 261 670 q 251 640 240 600 q 228 561 216 516 q 204 470 194 423 q 184 375 178 328 q 172 281 172 238 q 172 194 179 156 q 187 119 204 91 q 221 63 249 47 q 277 31 318 31 q 350 31 378 49 q 407 66 432 97 q 457 129 479 173 q 501 217 520 270 q 539 322 553 382 q 568 442 580 506 q 591 569 598 635 q 606 701 609 766 z"},"o":{"x_min":0,"x_max":421,"ha":421,"o":"m 362 376 q 376 348 384 317 q 391 285 391 246 q 391 217 384 188 q 378 158 366 131 q 354 104 337 80 q 319 56 297 38 q 275 21 249 10 q 222 0 192 0 q 149 0 119 19 q 88 38 69 68 q 49 98 40 136 q 31 174 31 213 q 31 278 47 324 q 63 371 94 406 q 124 440 167 460 q 210 479 265 479 q 311 479 352 465 q 392 451 427 427 q 463 402 493 366 q 524 329 550 296 l 541 227 q 528 245 505 265 q 483 286 458 311 q 433 335 408 353 q 384 370 366 382 z m 211 94 q 228 94 244 111 q 259 127 271 153 q 283 179 290 215 q 297 251 297 280 q 297 302 293 322 q 290 341 283 355 q 276 369 266 377 q 255 386 240 386 q 220 386 202 369 q 184 352 170 325 q 156 298 148 266 q 141 234 141 193 q 141 173 145 155 q 148 137 157 123 q 165 110 179 102 q 192 94 211 94 z"},"N":{"x_min":0,"x_max":789,"ha":789,"o":"m 224 372 q 257 471 290 545 q 323 619 354 672 q 386 724 415 758 q 445 791 473 810 q 501 829 527 836 q 553 844 578 844 q 606 844 626 830 q 646 816 659 795 q 672 773 678 748 q 684 722 684 697 q 684 667 679 632 q 674 596 667 556 q 661 516 652 473 q 644 430 637 388 q 630 346 626 305 q 621 264 621 228 q 621 216 622 202 q 623 188 625 173 q 627 158 632 144 q 637 129 645 118 q 653 107 665 100 q 677 93 693 93 q 717 93 743 105 q 769 117 794 135 q 819 152 842 173 q 865 194 882 212 q 899 229 909 241 q 919 253 919 254 l 949 148 q 933 127 913 106 q 893 85 870 67 q 847 48 822 32 q 796 17 769 5 q 742 -7 715 -13 q 688 -20 662 -20 q 627 -20 602 -8 q 576 3 557 23 q 538 43 525 70 q 513 97 505 126 q 498 156 494 187 q 491 218 491 247 q 491 285 497 321 q 503 358 512 393 q 521 429 532 462 q 542 496 551 528 q 560 560 566 590 q 572 620 572 648 q 572 655 571 667 q 570 680 567 691 q 564 702 557 710 q 550 719 539 719 q 519 719 498 700 q 478 682 456 650 q 434 618 412 573 q 390 529 368 478 q 347 427 325 371 q 304 314 284 258 q 265 201 246 146 q 228 90 211 42 q 198 15 180 4 q 162 -7 140 -7 q 127 -7 115 -1 q 104 4 94 14 q 85 25 80 40 q 74 56 74 75 q 74 96 76 112 q 78 129 82 146 q 94 202 105 249 q 115 296 124 339 q 133 382 140 423 q 147 463 153 504 q 159 544 163 587 q 167 630 171 679 q 171 684 171 690 q 171 697 169 703 q 168 709 164 714 q 161 718 153 718 q 144 718 130 709 q 116 700 101 683 q 86 667 71 645 q 55 623 42 598 q 40 590 33 587 q 27 584 19 584 q 13 584 6 588 q -1 592 -7 598 q -13 604 -17 611 q -21 617 -21 623 q -21 625 -19 627 q -2 683 18 721 q 39 759 62 783 q 85 807 109 817 q 133 828 156 828 q 191 828 215 818 q 238 807 253 788 q 268 770 274 743 q 280 717 280 685 q 280 652 275 615 q 270 578 260 538 q 251 499 239 457 q 228 416 215 375 z"},"+":{"x_min":0,"x_max":631,"ha":631,"o":"m 277 203 l 168 203 q 152 203 140 207 q 128 211 121 218 q 113 224 109 232 q 105 241 105 250 q 105 258 109 267 q 113 275 121 282 q 129 289 142 293 q 154 297 170 297 l 277 297 l 277 408 q 277 422 282 433 q 287 443 294 451 q 302 458 312 462 q 321 466 331 466 q 346 466 359 455 q 371 443 371 417 l 371 297 l 493 297 q 519 297 530 284 q 542 272 542 256 q 542 247 538 237 q 534 228 527 220 q 519 212 508 208 q 498 203 484 203 l 371 203 l 371 94 q 371 78 367 66 q 363 54 356 46 q 350 38 341 33 q 333 29 324 29 q 315 29 307 33 q 298 37 292 45 q 285 53 281 65 q 277 77 277 92 z"},"G":{"x_min":0,"x_max":789,"ha":789,"o":"m 769 167 q 769 110 762 49 q 755 -12 741 -71 q 726 -129 702 -182 q 678 -234 643 -273 q 607 -313 560 -336 q 513 -359 453 -359 q 441 -359 426 -358 q 410 -356 393 -353 q 376 -350 359 -344 q 342 -338 329 -330 q 316 -322 308 -311 q 299 -300 299 -286 q 299 -278 302 -266 q 306 -254 312 -243 q 319 -232 329 -224 q 339 -215 353 -215 q 369 -215 384 -221 q 399 -226 416 -233 q 432 -239 449 -245 q 467 -250 487 -250 q 510 -250 532 -227 q 555 -203 574 -166 q 594 -128 611 -81 q 627 -35 638 12 q 615 -9 589 -29 q 562 -48 529 -62 q 496 -77 453 -85 q 410 -94 353 -94 q 287 -94 225 -67 q 163 -41 125 5 q 87 50 67 110 q 47 169 47 235 q 47 322 68 401 q 88 479 125 547 q 162 615 211 670 q 261 725 319 763 q 376 802 440 823 q 503 845 566 845 q 605 845 639 833 q 672 821 697 796 q 722 771 736 733 q 750 695 750 643 q 750 622 745 602 q 740 582 729 561 q 713 538 698 529 q 684 519 670 519 q 660 519 651 524 q 643 530 636 539 q 630 547 626 558 q 623 569 623 581 q 623 590 625 599 q 628 608 632 617 q 635 625 638 635 q 641 645 641 655 q 641 704 619 728 q 598 752 565 752 q 526 752 482 736 q 438 720 396 689 q 354 658 317 613 q 279 567 250 509 q 221 451 204 381 q 188 311 188 230 q 188 180 200 143 q 212 105 245 81 q 277 56 310 43 q 343 31 385 31 q 462 31 527 52 q 592 73 649 110 q 653 125 656 138 q 659 152 659 163 q 659 178 655 186 q 651 195 644 199 q 638 203 629 204 q 620 205 609 205 q 591 205 577 210 q 563 215 553 223 q 543 230 539 241 q 534 251 534 261 q 534 271 538 281 q 543 291 553 298 q 562 305 577 310 q 592 314 612 314 q 660 314 690 305 q 721 295 738 276 q 755 257 762 229 q 769 202 769 167 z"},"q":{"x_min":0,"x_max":421,"ha":421,"o":"m 342 3 q 359 -92 359 -148 q 359 -203 350 -241 q 339 -278 319 -305 q 278 -359 203 -359 q 167 -359 140 -331 q 109 -299 109 -250 q 109 -201 129 -128 q 148 -56 162 -10 q 176 36 188 78 q 176 76 154 76 q 131 76 104 91 q 76 104 57 129 q 16 179 16 250 q 16 300 37 346 q 59 392 89 421 q 155 484 240 484 q 310 484 347 445 q 379 412 379 356 q 379 336 375 322 q 371 308 363 283 q 354 257 349 238 q 343 218 337 198 q 332 178 327 162 q 323 146 320 136 q 317 126 317 126 q 316 125 318 118 q 320 110 323 98 q 333 94 347 94 q 361 94 384 106 q 407 118 431 135 q 455 153 477 171 q 500 190 516 203 l 516 94 q 436 16 342 3 z m 271 375 q 255 390 234 390 q 213 390 193 378 q 172 366 158 347 q 145 328 135 299 q 125 269 125 252 q 125 234 128 216 q 131 198 140 182 q 160 144 203 141 q 203 144 208 156 q 214 169 216 187 q 217 205 225 216 q 222 223 241 266 q 261 310 271 375 z m 266 16 q 263 9 257 -10 l 244 -54 q 196 -209 196 -243 q 196 -253 201 -259 q 206 -266 219 -266 q 233 -266 246 -254 q 259 -243 267 -224 q 281 -188 281 -139 q 281 -43 266 16 z"},"d":{"x_min":0,"x_max":526,"ha":526,"o":"m 277 394 q 245 378 220 352 q 195 327 178 285 q 161 243 152 212 q 144 182 144 158 q 144 148 146 138 q 148 128 154 121 q 160 113 170 108 q 181 103 198 103 q 207 103 216 107 q 224 112 232 119 q 240 126 247 135 q 254 144 260 154 q 273 176 285 205 q 283 211 282 226 q 281 241 281 272 q 280 302 280 322 q 279 341 279 357 q 279 374 278 384 q 278 394 277 394 z m 613 96 q 579 69 545 48 q 531 39 515 31 q 500 22 484 15 q 469 9 455 5 q 440 0 428 0 q 421 0 408 3 q 395 6 379 15 q 363 24 347 42 q 331 59 319 87 q 301 69 281 53 q 261 38 239 26 q 217 14 195 7 q 173 0 150 0 q 119 0 95 14 q 72 27 57 50 q 42 73 34 102 q 26 130 26 161 q 26 192 34 224 q 42 256 58 286 q 73 316 92 349 q 111 382 142 409 q 173 436 206 449 q 238 463 275 466 q 277 529 287 578 q 296 626 312 682 q 329 737 350 784 q 372 831 398 865 q 424 899 453 918 q 482 938 514 938 q 537 938 553 926 q 569 914 579 894 q 589 874 593 848 q 598 822 598 794 q 598 777 596 759 q 590 690 573 629 q 556 567 533 509 q 510 451 483 394 q 442 307 431 275 q 428 269 426 259 q 423 249 421 238 q 419 226 417 214 q 416 202 416 191 q 416 177 418 164 q 419 151 423 141 q 427 131 434 125 q 440 120 450 120 q 459 120 470 123 q 481 127 494 133 q 506 140 518 148 q 531 156 542 164 q 569 184 599 208 z m 507 723 q 510 757 510 777 q 510 804 505 814 q 500 824 492 824 q 476 824 463 804 q 451 785 441 754 q 431 723 424 686 q 417 649 412 614 q 407 580 404 552 q 401 524 400 512 q 398 488 397 466 q 396 444 395 426 q 395 407 395 394 q 395 380 395 373 l 395 368 q 422 431 446 494 q 456 521 466 551 q 476 580 484 610 q 492 640 498 668 q 504 697 507 723 z"},"1":{"x_min":0,"x_max":315,"ha":315,"o":"m 156 415 q 149 407 140 399 q 132 391 124 385 q 116 378 109 374 q 102 370 99 370 q 53 370 28 378 q 4 386 4 394 q 4 399 14 403 q 24 406 46 406 q 51 406 62 414 q 73 422 88 435 q 103 447 121 461 q 139 475 158 487 q 177 500 196 508 q 216 516 234 516 q 261 516 270 512 q 278 508 278 501 q 278 494 276 483 q 274 473 274 458 q 274 458 271 440 q 269 423 265 395 q 260 366 255 330 q 249 294 244 258 q 238 221 233 186 q 229 151 225 125 q 224 119 221 107 q 219 96 215 82 q 211 68 206 53 q 200 39 192 27 q 185 15 174 8 q 164 0 150 0 q 134 0 120 2 q 106 4 96 8 q 85 12 80 19 q 74 25 74 35 q 74 39 74 42 q 75 46 78 52 q 86 81 94 111 q 101 142 108 172 q 115 203 122 233 q 128 263 133 290 q 146 353 156 415 z"},"5":{"x_min":0,"x_max":406,"ha":406,"o":"m 233 414 q 213 416 199 418 q 185 421 175 423 q 165 425 157 427 q 149 428 140 428 q 137 428 134 428 q 130 428 126 427 q 130 405 130 402 q 133 388 135 376 q 137 356 140 312 q 169 315 195 315 q 242 315 274 306 q 307 298 329 284 q 351 270 363 252 q 375 234 381 215 q 387 196 389 178 q 390 160 390 145 q 390 117 375 90 q 361 62 335 41 q 309 19 272 6 q 236 -8 193 -8 q 148 -8 115 2 q 83 12 62 30 q 42 48 32 73 q 22 98 22 128 q 22 147 28 159 q 34 172 43 179 q 52 187 64 190 q 77 193 90 193 q 101 193 115 191 q 129 188 142 184 q 154 179 162 174 q 170 168 170 164 q 170 160 162 157 q 154 155 144 151 q 133 146 125 140 q 117 133 117 122 q 117 105 120 93 q 124 82 130 74 q 136 67 144 63 q 152 60 161 60 q 177 60 193 67 q 210 74 223 86 q 237 98 245 114 q 254 131 254 150 q 254 174 247 191 q 240 207 226 217 q 212 228 191 233 q 170 238 142 241 q 127 243 103 244 q 79 246 72 249 q 65 251 61 258 q 57 264 55 277 q 53 289 52 326 q 51 363 50 394 q 49 408 49 421 q 48 433 48 444 q 48 482 53 501 q 59 520 66 527 q 73 534 80 534 q 101 534 122 534 q 136 534 150 531 q 165 529 179 526 q 194 522 209 520 q 225 517 240 517 q 245 517 250 517 q 254 518 259 519 q 281 523 291 527 q 300 530 303 532 q 307 535 307 536 q 308 537 313 537 q 332 537 340 520 q 348 502 348 474 q 348 475 348 472 q 348 469 345 465 q 342 460 336 454 q 329 448 316 441 q 304 434 284 427 q 264 420 233 414 z"}}}
